<svg width="2632" height="585" viewBox="0 0 2632 585" fill="none" xmlns="http://www.w3.org/2000/svg">
<path d="M0 100C0 44.7715 44.7715 0 100 0H485C540.228 0 585 44.7715 585 100V485C585 540.228 540.228 585 485 585H100C44.7715 585 0 540.228 0 485V100Z" fill="#22D3EE"/>
<path d="M121 493V91H205.912V256.864H378.284V91H463V493H378.284V326.939H205.912V493H121Z" fill="white"/>
<path d="M755 487.683V124.735H999.658V188.003H831.766V274.487H987.071V337.754H831.766V424.415H1000.37V487.683H755Z" fill="#22D3EE"/>
<path d="M1228.94 276.259V336.159H1063.35V276.259H1228.94Z" fill="#22D3EE"/>
<path d="M1615.07 251.802H1537.42C1536 241.76 1533.11 232.84 1528.73 225.042C1524.36 217.126 1518.75 210.392 1511.89 204.839C1505.03 199.286 1497.12 195.033 1488.13 192.079C1479.27 189.125 1469.64 187.648 1459.24 187.648C1440.44 187.648 1424.07 192.315 1410.13 201.649C1396.18 210.864 1385.36 224.333 1377.68 242.055C1370 259.659 1366.16 281.044 1366.16 306.209C1366.16 332.083 1370 353.822 1377.68 371.426C1385.48 389.03 1396.36 402.322 1410.3 411.301C1424.25 420.28 1440.38 424.77 1458.7 424.77C1468.99 424.77 1478.5 423.411 1487.25 420.694C1496.11 417.976 1503.97 414.019 1510.83 408.82C1517.68 403.503 1523.35 397.064 1527.85 389.503C1532.46 381.942 1535.65 373.317 1537.42 363.629L1615.07 363.983C1613.06 380.642 1608.04 396.71 1600 412.187C1592.08 427.546 1581.39 441.311 1567.91 453.48C1554.56 465.531 1538.6 475.101 1520.05 482.189C1501.61 489.16 1480.75 492.646 1457.46 492.646C1425.08 492.646 1396.12 485.32 1370.59 470.67C1345.18 456.02 1325.09 434.812 1310.31 407.048C1295.66 379.283 1288.33 345.67 1288.33 306.209C1288.33 266.63 1295.77 232.958 1310.67 205.193C1325.56 177.429 1345.77 156.28 1371.3 141.748C1396.83 127.098 1425.55 119.773 1457.46 119.773C1478.5 119.773 1498 122.726 1515.97 128.634C1534.05 134.541 1550.07 143.166 1564.01 154.508C1577.96 165.732 1589.31 179.496 1598.05 195.8C1606.92 212.105 1612.59 230.772 1615.07 251.802Z" fill="#22D3EE"/>
<path d="M1744.23 124.735V487.683H1668.7V124.735H1744.23Z" fill="#22D3EE"/>
<path d="M1804.73 487.683V215.472H1880.25V487.683H1804.73ZM1842.67 180.382C1831.44 180.382 1821.81 176.661 1813.77 169.217C1805.85 161.656 1801.89 152.618 1801.89 142.103C1801.89 131.706 1805.85 122.785 1813.77 115.342C1821.81 107.781 1831.44 104 1842.67 104C1853.89 104 1863.47 107.781 1871.39 115.342C1879.42 122.785 1883.44 131.706 1883.44 142.103C1883.44 152.618 1879.42 161.656 1871.39 169.217C1863.47 176.661 1853.89 180.382 1842.67 180.382Z" fill="#22D3EE"/>
<path d="M2016.28 330.311V487.683H1940.75V215.472H2012.73V263.499H2015.92C2021.95 247.667 2032.06 235.144 2046.24 225.928C2060.42 216.594 2077.62 211.928 2097.83 211.928C2116.74 211.928 2133.23 216.063 2147.29 224.333C2161.36 232.603 2172.29 244.418 2180.09 259.777C2187.89 275.018 2191.79 293.213 2191.79 314.361V487.683H2116.27V327.83C2116.39 311.171 2112.13 298.175 2103.5 288.841C2094.87 279.39 2083 274.664 2067.87 274.664C2057.7 274.664 2048.72 276.85 2040.92 281.221C2033.24 285.592 2027.21 291.972 2022.84 300.361C2018.58 308.631 2016.39 318.615 2016.28 330.311Z" fill="#22D3EE"/>
<path d="M2251.32 487.683V215.472H2326.84V487.683H2251.32ZM2289.26 180.382C2278.03 180.382 2268.4 176.661 2260.36 169.217C2252.44 161.656 2248.48 152.618 2248.48 142.103C2248.48 131.706 2252.44 122.785 2260.36 115.342C2268.4 107.781 2278.03 104 2289.26 104C2300.48 104 2310.06 107.781 2317.98 115.342C2326.01 122.785 2330.03 131.706 2330.03 142.103C2330.03 152.618 2326.01 161.656 2317.98 169.217C2310.06 176.661 2300.48 180.382 2289.26 180.382Z" fill="#22D3EE"/>
<path d="M2510.38 493C2482.49 493 2458.49 487.093 2438.4 475.278C2418.43 463.345 2403.06 446.804 2392.31 425.656C2381.67 404.508 2376.35 380.169 2376.35 352.641C2376.35 324.758 2381.73 300.302 2392.48 279.272C2403.36 258.123 2418.78 241.642 2438.76 229.827C2458.73 217.894 2482.49 211.928 2510.03 211.928C2533.78 211.928 2554.58 216.24 2572.43 224.865C2590.28 233.489 2604.4 245.6 2614.8 261.195C2625.2 276.79 2630.94 295.103 2632 316.133H2560.73C2558.72 302.547 2553.4 291.618 2544.77 283.348C2536.26 274.959 2525.09 270.765 2511.27 270.765C2499.57 270.765 2489.34 273.955 2480.6 280.335C2471.97 286.597 2465.23 295.753 2460.38 307.804C2455.54 319.855 2453.12 334.446 2453.12 351.578C2453.12 368.945 2455.48 383.714 2460.21 395.883C2465.05 408.052 2471.85 417.327 2480.6 423.707C2489.34 430.087 2499.57 433.277 2511.27 433.277C2519.89 433.277 2527.64 431.504 2534.49 427.96C2541.46 424.415 2547.2 419.276 2551.69 412.542C2556.3 405.689 2559.31 397.478 2560.73 387.908H2632C2630.82 408.702 2625.15 427.015 2614.98 442.846C2604.93 458.56 2591.05 470.847 2573.32 479.708C2555.59 488.569 2534.61 493 2510.38 493Z" fill="#22D3EE"/>
</svg>
