<svg width="772" height="772" viewBox="0 0 772 772" fill="none" xmlns="http://www.w3.org/2000/svg">
<path d="M772 590.423H0V590.809H772V590.423Z" fill="#EBEBEB"/>
<path d="M694.647 615.275H643.507V615.661H694.647V615.275Z" fill="#EBEBEB"/>
<path d="M511.404 619.465H497.982V619.851H511.404V619.465Z" fill="#EBEBEB"/>
<path d="M641.961 600.937H612.329V601.323H641.961V600.937Z" fill="#EBEBEB"/>
<path d="M147.687 603.531H80.9967V603.917H147.687V603.531Z" fill="#EBEBEB"/>
<path d="M171.213 603.531H161.434V603.917H171.213V603.531Z" fill="#EBEBEB"/>
<path d="M347.627 610.051H202.991V610.437H347.627V610.051Z" fill="#EBEBEB"/>
<path d="M684.154 588.951V435.564H649.013V364.951H644.056V405.423H630.542V394.23H606.213V355.478H601.708V308.116H598.102V354.618H589.542V423.508H573.324V354.618H544.039V412.876H513.295V342.265H508.34V382.737H494.824V371.543H470.495V332.792H465.99V285.43H462.385V331.931H453.825V400.821H437.607V331.931H408.322V398.568H388.574V359.817H384.068V312.455H380.463V358.957H371.903V427.845H355.685V358.957H326.4V427.845H311.984V435.564H286.727V364.951H281.772V405.423H268.256V394.23H243.927V355.478H239.422V308.116H235.817V354.618H227.961V350.74H198.676V354.618H182.458V350.74H173.898V304.239H170.292V351.601H165.787V390.351H141.46V401.547H127.942V361.074H122.987V431.685H87.8459V588.951H684.154Z" fill="#F5F5F5"/>
<path d="M591.202 229.462C613.093 220.394 623.489 195.296 614.421 173.404C605.353 151.512 580.255 141.117 558.364 150.185C536.472 159.253 526.076 184.351 535.144 206.241C544.212 228.134 569.31 238.529 591.202 229.462Z" fill="#FAFAFA"/>
<path d="M552.511 189.345C552.511 185.226 549.171 181.888 545.054 181.888C544.309 181.888 543.591 182.001 542.912 182.204C543.02 181.457 543.079 180.693 543.079 179.915C543.079 171.193 536.007 164.121 527.285 164.121C526.291 164.121 525.32 164.218 524.376 164.393C521.949 160.42 517.586 157.76 512.589 157.76C505.027 157.76 498.893 163.835 498.78 171.372C498.703 171.37 498.627 171.361 498.55 171.361C491.523 171.361 485.827 177.057 485.827 184.083C485.827 191.11 491.523 196.806 498.55 196.806H545.273L545.264 196.795C549.284 196.681 552.511 193.394 552.511 189.345Z" fill="#F0F0F0"/>
<path d="M94.706 268.719C94.706 264.6 98.0457 261.262 102.164 261.262C102.908 261.262 103.626 261.374 104.305 261.577C104.197 260.829 104.138 260.065 104.138 259.287C104.138 250.565 111.21 243.493 119.932 243.493C120.926 243.493 121.897 243.589 122.841 243.765C125.268 239.792 129.631 237.132 134.628 237.132C142.19 237.132 148.325 243.208 148.436 250.744C148.513 250.743 148.589 250.732 148.666 250.732C155.692 250.732 161.388 256.428 161.388 263.454C161.388 270.481 155.692 276.177 148.666 276.177H101.944L101.954 276.166C97.933 276.055 94.706 272.768 94.706 268.719Z" fill="#F0F0F0"/>
<path d="M274.665 182.839C274.665 176.322 269.382 171.038 262.864 171.038C261.686 171.038 260.55 171.216 259.475 171.538C259.647 170.354 259.741 169.147 259.741 167.915C259.741 154.114 248.553 142.927 234.753 142.927C233.18 142.927 231.642 143.079 230.15 143.357C226.309 137.072 219.405 132.861 211.5 132.861C199.536 132.861 189.83 142.476 189.651 154.398C189.529 154.395 189.41 154.38 189.287 154.38C178.17 154.38 169.158 163.392 169.158 174.509C169.158 185.627 178.17 194.64 189.287 194.64H263.212L263.196 194.623C269.559 194.445 274.665 189.243 274.665 182.839Z" fill="#F0F0F0"/>
<path d="M445.629 244.492C445.629 236.65 439.271 230.292 431.429 230.292C430.01 230.292 428.644 230.507 427.351 230.893C427.558 229.469 427.669 228.015 427.669 226.533C427.669 209.924 414.206 196.46 397.597 196.46C395.704 196.46 393.854 196.644 392.057 196.979C387.434 189.415 379.126 184.349 369.614 184.349C355.214 184.349 343.534 195.918 343.321 210.267C343.174 210.263 343.03 210.245 342.882 210.245C329.503 210.245 318.658 221.09 318.658 234.469C318.658 247.848 329.503 258.693 342.882 258.693H431.846L431.827 258.673C439.486 258.459 445.629 252.2 445.629 244.492Z" fill="#F0F0F0"/>
<path d="M646.091 211.689C646.091 209.127 644.015 207.052 641.455 207.052C640.992 207.052 640.545 207.121 640.124 207.248C640.192 206.783 640.227 206.308 640.227 205.824C640.227 200.402 635.831 196.005 630.409 196.005C629.791 196.005 629.186 196.065 628.599 196.174C627.091 193.704 624.378 192.05 621.272 192.05C616.57 192.05 612.756 195.829 612.687 200.513C612.639 200.513 612.593 200.505 612.543 200.505C608.175 200.505 604.633 204.047 604.633 208.415C604.633 212.783 608.175 216.325 612.543 216.325H641.591L641.584 216.319C644.086 216.25 646.091 214.205 646.091 211.689Z" fill="#F0F0F0"/>
<path d="M658.745 344.852C658.745 342.292 656.668 340.216 654.108 340.216C653.645 340.216 653.198 340.285 652.777 340.412C652.845 339.947 652.88 339.472 652.88 338.988C652.88 333.566 648.485 329.17 643.062 329.17C642.444 329.17 641.839 329.23 641.253 329.338C639.744 326.868 637.031 325.214 633.925 325.214C629.223 325.214 625.41 328.992 625.34 333.677C625.292 333.675 625.246 333.669 625.196 333.669C620.829 333.669 617.287 337.211 617.287 341.579C617.287 345.947 620.829 349.489 625.196 349.489H654.244L654.238 349.483C656.737 349.413 658.745 347.369 658.745 344.852Z" fill="#F0F0F0"/>
<path d="M220.085 372.825C220.085 370.265 218.008 368.188 215.448 368.188C214.985 368.188 214.539 368.258 214.117 368.385C214.185 367.92 214.221 367.444 214.221 366.961C214.221 361.538 209.825 357.143 204.402 357.143C203.785 357.143 203.18 357.203 202.594 357.311C201.086 354.841 198.373 353.187 195.267 353.187C190.565 353.187 186.751 356.965 186.682 361.65C186.634 361.648 186.588 361.642 186.538 361.642C182.17 361.642 178.628 365.184 178.628 369.552C178.628 373.92 182.169 377.462 186.538 377.462H215.586L215.579 377.456C218.078 377.384 220.085 375.342 220.085 372.825Z" fill="#F0F0F0"/>
<path d="M386 660.154C551.335 660.154 685.365 652.328 685.365 642.671C685.365 633.017 551.335 625.189 386 625.189C220.665 625.189 86.6355 633.017 86.6355 642.671C86.6355 652.328 220.665 660.154 386 660.154Z" fill="#F5F5F5"/>
<path d="M635.016 615.962C634.831 614.439 634.913 612.219 636.801 611.597C639.752 610.624 641.503 608.338 641.404 605.753C641.305 603.168 644.412 600.651 646.742 603.076C649.071 605.498 648.761 601.212 651.868 600.171C654.974 599.131 657.608 601.657 656.757 603.966C655.907 606.276 658.972 607.718 662.643 605.754C666.313 603.79 670.352 607.363 669.576 610.159C668.799 612.956 669.435 613.266 671.757 612.333C673.726 611.543 676.998 613.323 677.067 615.963H635.016V615.962Z" fill="#22D3EE"/>
<path d="M678.562 522.513C678.664 522.142 678.725 521.718 678.753 521.25C678.909 518.63 681.409 519.045 683.537 518.69C685.198 518.412 680.797 514.214 684.149 512.858C684.772 512.606 685.448 512.322 685.766 511.731C686.188 510.95 685.761 509.92 685.036 509.407C684.31 508.895 683.379 508.787 682.491 508.77C681.945 508.104 682.389 507.105 682.919 506.426C683.447 505.746 684.095 504.974 683.895 504.138C683.592 502.875 681.826 502.828 680.55 503.074C680.08 502.311 680.089 501.355 679.86 500.488C679.632 499.62 678.942 498.709 678.051 498.817C677.211 498.919 676.698 499.867 675.875 500.06C674.919 500.285 674.092 499.441 673.343 498.806C672.593 498.172 671.282 497.776 670.766 498.612C670.457 499.112 670.643 499.808 670.321 500.301C669.764 501.155 668.444 500.625 667.626 500.02C666.806 499.415 665.5 498.866 664.924 499.706C664.746 499.964 664.707 500.288 664.606 500.583C664.218 501.703 663.008 502.26 662.066 502.978C661.124 503.696 660.376 505.123 661.175 505.998C661.568 506.43 662.26 506.605 662.455 507.156C662.699 507.843 661.996 508.461 661.439 508.933C660.512 509.721 660.346 512.078 661.57 512.722C662.084 512.992 662.838 513.076 662.964 513.643C663.077 514.149 662.563 514.544 662.222 514.935C661.283 516.008 661.68 517.941 662.966 518.557C663.259 518.698 663.62 518.813 663.73 519.121C663.809 519.34 663.722 519.581 663.661 519.805C663.542 520.229 663.502 520.677 663.543 521.117C663.557 521.268 663.588 521.43 663.702 521.529C663.806 521.619 663.954 521.633 664.09 521.639C665.858 521.718 666.712 521.092 667.789 522.63C667.893 522.778 668.002 522.93 668.158 523.021C668.305 523.106 668.478 523.129 668.646 523.143C669.861 523.243 670.656 522.485 671.767 522.343C673.308 522.147 673.635 522.94 674.992 523.58C677.126 524.586 678.16 523.967 678.562 522.513Z" fill="#22D3EE"/>
<path d="M658.2 520.313C658.301 519.942 658.363 519.517 658.391 519.05C658.547 516.429 661.047 516.845 663.174 516.49C664.837 516.212 660.435 512.014 663.787 510.658C664.409 510.406 665.086 510.122 665.404 509.531C665.825 508.75 665.399 507.72 664.674 507.207C663.948 506.695 663.017 506.586 662.129 506.569C661.582 505.904 662.027 504.905 662.557 504.226C663.086 503.548 663.733 502.774 663.532 501.937C663.23 500.674 661.464 500.628 660.188 500.874C659.717 500.111 659.727 499.155 659.496 498.287C659.268 497.42 658.578 496.509 657.687 496.618C656.847 496.72 656.334 497.668 655.511 497.861C654.556 498.087 653.728 497.242 652.979 496.608C652.229 495.973 650.918 495.578 650.402 496.413C650.094 496.913 650.279 497.61 649.958 498.102C649.4 498.956 648.08 498.426 647.26 497.821C646.44 497.216 645.134 496.668 644.558 497.508C644.382 497.766 644.342 498.088 644.24 498.385C643.853 499.504 642.642 500.061 641.7 500.779C640.759 501.497 640.011 502.924 640.809 503.8C641.203 504.232 641.895 504.406 642.089 504.958C642.333 505.646 641.631 506.262 641.073 506.735C640.147 507.522 639.98 509.878 641.203 510.524C641.717 510.794 642.471 510.877 642.597 511.444C642.71 511.95 642.196 512.346 641.853 512.736C640.914 513.809 641.311 515.742 642.597 516.358C642.891 516.499 643.252 516.615 643.362 516.922C643.44 517.141 643.354 517.382 643.292 517.606C643.173 518.031 643.133 518.478 643.175 518.918C643.189 519.068 643.22 519.232 643.334 519.331C643.437 519.42 643.586 519.434 643.721 519.44C645.489 519.519 646.343 518.894 647.421 520.431C647.524 520.58 647.632 520.731 647.788 520.822C647.935 520.907 648.108 520.93 648.276 520.944C649.491 521.044 650.287 520.285 651.397 520.144C652.938 519.948 653.265 520.742 654.622 521.381C656.764 522.386 657.8 521.767 658.2 520.313Z" fill="#22D3EE"/>
<path d="M656.239 507.345C656.34 506.974 656.402 506.549 656.43 506.082C656.586 503.461 659.086 503.877 661.213 503.522C662.876 503.244 658.474 499.046 661.826 497.69C662.449 497.438 663.125 497.154 663.443 496.563C663.864 495.782 663.438 494.752 662.713 494.239C661.987 493.726 661.056 493.618 660.168 493.601C659.621 492.936 660.066 491.937 660.596 491.258C661.125 490.578 661.772 489.806 661.572 488.969C661.269 487.706 659.503 487.66 658.227 487.906C657.756 487.143 657.766 486.187 657.537 485.319C657.309 484.452 656.618 483.541 655.728 483.649C654.888 483.751 654.375 484.699 653.554 484.893C652.598 485.119 651.77 484.273 651.021 483.64C650.271 483.005 648.96 482.61 648.444 483.445C648.136 483.945 648.321 484.642 648 485.134C647.442 485.988 646.122 485.458 645.302 484.853C644.483 484.248 643.176 483.7 642.6 484.54C642.424 484.798 642.384 485.12 642.282 485.417C641.895 486.536 640.684 487.093 639.742 487.811C638.801 488.529 638.053 489.956 638.852 490.833C639.245 491.265 639.937 491.44 640.132 491.991C640.376 492.678 639.673 493.296 639.116 493.768C638.189 494.556 638.022 496.913 639.245 497.557C639.759 497.827 640.513 497.911 640.64 498.477C640.752 498.984 640.238 499.379 639.895 499.77C638.957 500.843 639.353 502.776 640.64 503.392C640.933 503.532 641.294 503.648 641.404 503.955C641.481 504.175 641.396 504.416 641.333 504.639C641.214 505.064 641.174 505.512 641.215 505.952C641.229 506.102 641.26 506.265 641.376 506.364C641.479 506.454 641.628 506.468 641.764 506.474C643.531 506.552 644.384 505.927 645.463 507.465C645.566 507.613 645.675 507.765 645.83 507.856C645.977 507.941 646.15 507.964 646.318 507.978C647.534 508.078 648.329 507.318 649.439 507.178C650.98 506.982 651.307 507.775 652.664 508.415C654.801 509.418 655.837 508.801 656.239 507.345Z" fill="#22D3EE"/>
<path d="M642.824 513.805C642.926 513.434 642.988 513.009 643.016 512.542C643.172 509.921 645.671 510.337 647.799 509.982C649.462 509.704 645.06 505.506 648.412 504.15C649.034 503.898 649.711 503.614 650.029 503.023C650.45 502.242 650.024 501.212 649.298 500.699C648.573 500.186 647.642 500.078 646.754 500.061C646.207 499.396 646.652 498.397 647.18 497.718C647.71 497.038 648.357 496.266 648.156 495.429C647.853 494.166 646.087 494.12 644.811 494.366C644.341 493.603 644.35 492.647 644.121 491.779C643.893 490.912 643.203 490.001 642.312 490.11C641.472 490.212 640.959 491.16 640.136 491.353C639.181 491.579 638.353 490.734 637.604 490.1C636.854 489.465 635.543 489.07 635.027 489.905C634.718 490.405 634.904 491.102 634.582 491.594C634.025 492.446 632.705 491.918 631.885 491.313C631.065 490.708 629.759 490.16 629.183 491C629.007 491.258 628.969 491.58 628.865 491.875C628.478 492.995 627.267 493.552 626.325 494.27C625.383 494.988 624.636 496.415 625.434 497.29C625.828 497.722 626.52 497.897 626.714 498.448C626.958 499.137 626.256 499.753 625.7 500.225C624.773 501.013 624.607 503.37 625.83 504.014C626.344 504.284 627.097 504.368 627.224 504.934C627.337 505.441 626.822 505.836 626.481 506.227C625.542 507.3 625.939 509.233 627.225 509.849C627.519 509.989 627.88 510.105 627.99 510.412C628.068 510.632 627.982 510.873 627.92 511.096C627.801 511.521 627.761 511.969 627.803 512.409C627.817 512.559 627.848 512.722 627.962 512.821C628.065 512.911 628.214 512.925 628.349 512.931C630.117 513.009 630.97 512.384 632.049 513.922C632.152 514.07 632.262 514.221 632.418 514.313C632.564 514.397 632.737 514.421 632.906 514.435C634.121 514.535 634.916 513.777 636.026 513.635C637.567 513.439 637.894 514.232 639.252 514.871C641.388 515.877 642.424 515.259 642.824 513.805Z" fill="#22D3EE"/>
<path d="M629.27 510.82C629.371 510.45 629.433 510.025 629.461 509.557C629.617 506.937 632.117 507.352 634.244 506.997C635.907 506.719 631.505 502.521 634.857 501.165C635.479 500.914 636.156 500.63 636.474 500.038C636.895 499.257 636.469 498.227 635.744 497.715C635.019 497.202 634.087 497.094 633.199 497.077C632.652 496.411 633.097 495.412 633.625 494.733C634.155 494.054 634.802 493.282 634.601 492.445C634.298 491.182 632.532 491.136 631.257 491.381C630.786 490.617 630.795 489.663 630.565 488.795C630.336 487.927 629.646 487.016 628.755 487.126C627.917 487.228 627.403 488.176 626.581 488.369C625.626 488.594 624.798 487.75 624.049 487.115C623.299 486.48 621.988 486.085 621.472 486.92C621.164 487.421 621.349 488.117 621.028 488.61C620.47 489.462 619.15 488.934 618.33 488.329C617.51 487.723 616.204 487.175 615.628 488.015C615.452 488.273 615.414 488.596 615.31 488.891C614.923 490.01 613.712 490.567 612.77 491.285C611.829 492.003 611.081 493.43 611.879 494.305C612.273 494.738 612.965 494.912 613.161 495.463C613.405 496.152 612.702 496.768 612.145 497.241C611.219 498.028 611.05 500.386 612.275 501.03C612.789 501.3 613.542 501.383 613.669 501.95C613.782 502.456 613.267 502.851 612.925 503.242C611.986 504.315 612.383 506.248 613.669 506.864C613.962 507.005 614.324 507.121 614.433 507.428C614.512 507.647 614.426 507.888 614.362 508.112C614.243 508.537 614.203 508.984 614.245 509.424C614.259 509.574 614.29 509.738 614.404 509.837C614.507 509.926 614.656 509.94 614.791 509.946C616.559 510.025 617.412 509.4 618.491 510.937C618.594 511.086 618.702 511.237 618.858 511.328C619.005 511.413 619.178 511.436 619.346 511.45C620.561 511.55 621.357 510.792 622.467 510.65C624.008 510.454 624.335 511.248 625.692 511.887C627.832 512.894 628.868 512.276 629.27 510.82Z" fill="#22D3EE"/>
<path d="M629.092 525.321C629.172 525.029 629.22 524.696 629.242 524.327C629.364 522.264 631.334 522.591 633.009 522.312C634.318 522.093 630.852 518.787 633.491 517.72C633.982 517.523 634.515 517.299 634.765 516.832C635.097 516.216 634.76 515.406 634.19 515.003C633.619 514.6 632.886 514.513 632.186 514.501C631.755 513.978 632.106 513.19 632.523 512.656C632.94 512.122 633.449 511.513 633.292 510.854C633.054 509.86 631.663 509.823 630.658 510.017C630.287 509.417 630.293 508.665 630.114 507.981C629.934 507.297 629.392 506.58 628.689 506.665C628.028 506.745 627.625 507.491 626.977 507.644C626.225 507.822 625.573 507.156 624.982 506.657C624.392 506.159 623.359 505.847 622.953 506.505C622.709 506.898 622.856 507.446 622.603 507.834C622.164 508.506 621.125 508.089 620.48 507.613C619.834 507.136 618.806 506.705 618.352 507.366C618.213 507.568 618.182 507.825 618.102 508.056C617.796 508.938 616.843 509.376 616.102 509.942C615.361 510.507 614.773 511.631 615.401 512.319C615.712 512.659 616.255 512.798 616.41 513.23C616.603 513.772 616.048 514.257 615.61 514.631C614.881 515.251 614.748 517.107 615.712 517.614C616.116 517.827 616.711 517.892 616.81 518.339C616.898 518.738 616.493 519.05 616.224 519.357C615.485 520.203 615.798 521.724 616.811 522.209C617.043 522.32 617.327 522.411 617.413 522.652C617.475 522.825 617.407 523.013 617.358 523.191C617.263 523.526 617.233 523.878 617.265 524.224C617.276 524.342 617.301 524.471 617.39 524.548C617.472 524.619 617.588 524.63 617.696 524.634C619.088 524.696 619.76 524.203 620.609 525.415C620.691 525.531 620.776 525.652 620.9 525.723C621.014 525.789 621.151 525.808 621.284 525.818C622.241 525.897 622.867 525.3 623.74 525.189C624.954 525.034 625.21 525.659 626.28 526.163C627.962 526.955 628.775 526.467 629.092 525.321Z" fill="#22D3EE"/>
<path d="M621.496 520.313C621.597 519.942 621.659 519.517 621.687 519.05C621.843 516.429 624.344 516.845 626.47 516.49C628.132 516.212 623.731 512.014 627.083 510.658C627.705 510.406 628.382 510.122 628.7 509.531C629.121 508.75 628.695 507.72 627.969 507.207C627.245 506.695 626.313 506.586 625.425 506.569C624.878 505.904 625.323 504.905 625.851 504.226C626.381 503.548 627.028 502.774 626.827 501.937C626.524 500.674 624.758 500.628 623.483 500.874C623.012 500.111 623.021 499.155 622.791 498.287C622.562 497.42 621.872 496.509 620.981 496.618C620.143 496.72 619.63 497.668 618.807 497.861C617.852 498.087 617.024 497.242 616.275 496.608C615.526 495.973 614.214 495.578 613.698 496.413C613.389 496.913 613.575 497.61 613.254 498.102C612.696 498.956 611.376 498.426 610.558 497.821C609.738 497.216 608.432 496.668 607.856 497.508C607.678 497.766 607.64 498.088 607.538 498.385C607.15 499.504 605.94 500.061 604.998 500.779C604.056 501.497 603.309 502.924 604.107 503.8C604.501 504.232 605.192 504.406 605.387 504.958C605.631 505.646 604.928 506.262 604.371 506.735C603.445 507.522 603.278 509.878 604.502 510.524C605.016 510.794 605.77 510.877 605.896 511.444C606.009 511.95 605.495 512.346 605.152 512.736C604.213 513.809 604.61 515.742 605.896 516.358C606.19 516.499 606.551 516.615 606.661 516.922C606.738 517.141 606.653 517.382 606.59 517.606C606.471 518.031 606.431 518.478 606.472 518.918C606.486 519.068 606.517 519.232 606.633 519.331C606.736 519.42 606.885 519.434 607.021 519.44C608.788 519.519 609.641 518.894 610.72 520.431C610.823 520.58 610.931 520.731 611.087 520.822C611.234 520.907 611.407 520.93 611.575 520.944C612.79 521.044 613.586 520.285 614.696 520.144C616.237 519.948 616.564 520.742 617.921 521.381C620.06 522.386 621.096 521.767 621.496 520.313Z" fill="#22D3EE"/>
<path d="M642.824 497.854C642.926 497.483 642.988 497.058 643.016 496.591C643.172 493.97 645.671 494.386 647.799 494.031C649.462 493.753 645.06 489.555 648.412 488.199C649.034 487.947 649.711 487.663 650.029 487.072C650.45 486.291 650.024 485.261 649.298 484.748C648.573 484.235 647.642 484.127 646.754 484.11C646.207 483.446 646.652 482.446 647.18 481.767C647.71 481.087 648.357 480.315 648.156 479.478C647.853 478.215 646.087 478.169 644.811 478.415C644.341 477.652 644.35 476.696 644.121 475.828C643.893 474.961 643.203 474.05 642.312 474.158C641.472 474.26 640.959 475.208 640.136 475.402C639.181 475.628 638.353 474.782 637.604 474.149C636.854 473.514 635.543 473.119 635.027 473.954C634.718 474.454 634.904 475.151 634.582 475.643C634.025 476.495 632.705 475.967 631.885 475.362C631.065 474.757 629.759 474.209 629.183 475.049C629.007 475.307 628.969 475.629 628.865 475.924C628.478 477.044 627.267 477.601 626.325 478.319C625.383 479.037 624.636 480.463 625.434 481.339C625.828 481.771 626.52 481.946 626.714 482.497C626.958 483.186 626.256 483.802 625.7 484.274C624.773 485.061 624.607 487.419 625.83 488.063C626.344 488.333 627.097 488.417 627.224 488.983C627.337 489.49 626.822 489.885 626.481 490.276C625.542 491.349 625.939 493.282 627.225 493.898C627.519 494.038 627.88 494.154 627.99 494.461C628.068 494.681 627.982 494.921 627.92 495.145C627.801 495.57 627.761 496.018 627.803 496.458C627.817 496.608 627.848 496.771 627.962 496.87C628.065 496.96 628.214 496.973 628.349 496.98C630.117 497.058 630.97 496.433 632.049 497.971C632.152 498.119 632.262 498.27 632.418 498.362C632.564 498.446 632.737 498.47 632.906 498.483C634.121 498.584 634.916 497.826 636.026 497.684C637.567 497.488 637.894 498.281 639.252 498.92C641.388 499.927 642.424 499.308 642.824 497.854Z" fill="#22D3EE"/>
<path d="M660.239 498.744C660.341 498.374 660.403 497.949 660.431 497.481C660.586 494.861 663.086 495.277 665.215 494.922C666.877 494.644 662.476 490.445 665.828 489.09C666.451 488.838 667.127 488.554 667.445 487.963C667.865 487.181 667.44 486.152 666.715 485.639C665.989 485.126 665.058 485.018 664.17 485.001C663.624 484.337 664.068 483.337 664.596 482.657C665.126 481.978 665.773 481.206 665.572 480.369C665.269 479.106 663.503 479.06 662.228 479.305C661.757 478.541 661.766 477.587 661.536 476.719C661.308 475.852 660.617 474.941 659.726 475.05C658.888 475.152 658.374 476.1 657.551 476.293C656.595 476.519 655.768 475.674 655.019 475.039C654.268 474.405 652.958 474.01 652.442 474.845C652.133 475.345 652.318 476.041 651.997 476.534C651.44 477.388 650.12 476.858 649.301 476.253C648.482 475.648 647.175 475.1 646.599 475.94C646.422 476.197 646.383 476.52 646.281 476.817C645.894 477.936 644.683 478.493 643.741 479.211C642.8 479.929 642.052 481.356 642.851 482.231C643.244 482.664 643.936 482.838 644.131 483.389C644.375 484.078 643.672 484.694 643.115 485.166C642.188 485.954 642.021 488.312 643.246 488.955C643.76 489.226 644.513 489.309 644.64 489.876C644.753 490.382 644.239 490.777 643.896 491.168C642.957 492.241 643.354 494.174 644.64 494.79C644.933 494.931 645.295 495.047 645.404 495.354C645.483 495.575 645.397 495.814 645.333 496.038C645.214 496.462 645.174 496.91 645.216 497.35C645.23 497.5 645.261 497.664 645.375 497.762C645.478 497.852 645.627 497.866 645.763 497.872C647.53 497.951 648.384 497.325 649.462 498.863C649.565 499.012 649.673 499.163 649.829 499.254C649.976 499.339 650.149 499.362 650.317 499.376C651.532 499.476 652.328 498.718 653.438 498.576C654.979 498.38 655.306 499.175 656.663 499.813C658.803 500.818 659.839 500.199 660.239 498.744Z" fill="#22D3EE"/>
<path d="M670.817 505.871C670.919 505.501 670.981 505.076 671.009 504.609C671.164 501.988 673.664 502.404 675.792 502.049C677.455 501.771 673.053 497.573 676.405 496.217C677.027 495.965 677.703 495.681 678.021 495.09C678.443 494.308 678.017 493.279 677.291 492.766C676.567 492.253 675.634 492.145 674.747 492.128C674.2 491.463 674.645 490.464 675.174 489.785C675.704 489.105 676.351 488.333 676.15 487.496C675.847 486.233 674.081 486.187 672.806 486.433C672.335 485.67 672.344 484.714 672.114 483.846C671.885 482.979 671.195 482.068 670.304 482.176C669.466 482.278 668.952 483.226 668.13 483.419C667.175 483.644 666.347 482.799 665.598 482.165C664.848 481.53 663.537 481.135 663.021 481.97C662.713 482.471 662.898 483.167 662.577 483.66C662.019 484.513 660.699 483.984 659.879 483.379C659.059 482.773 657.753 482.225 657.177 483.065C657.001 483.323 656.963 483.646 656.859 483.942C656.472 485.061 655.261 485.619 654.319 486.337C653.378 487.055 652.63 488.481 653.428 489.357C653.822 489.789 654.514 489.964 654.708 490.515C654.952 491.202 654.25 491.82 653.693 492.292C652.766 493.079 652.599 495.436 653.822 496.081C654.336 496.351 655.09 496.435 655.216 497.001C655.329 497.508 654.815 497.903 654.472 498.294C653.534 499.367 653.93 501.3 655.216 501.916C655.51 502.056 655.871 502.172 655.981 502.479C656.059 502.699 655.973 502.939 655.91 503.163C655.791 503.588 655.751 504.036 655.792 504.476C655.806 504.625 655.837 504.789 655.951 504.888C656.055 504.978 656.203 504.991 656.339 504.998C658.107 505.076 658.959 504.451 660.038 505.989C660.142 506.137 660.25 506.288 660.406 506.379C660.553 506.464 660.725 506.488 660.894 506.501C662.109 506.602 662.904 505.844 664.014 505.702C665.555 505.506 665.882 506.301 667.24 506.938C669.381 507.945 670.416 507.326 670.817 505.871Z" fill="#22D3EE"/>
<path d="M667.61 514.878C667.61 514.878 663.187 521.132 661.661 523.115C660.136 525.097 652.508 537.454 651.471 545.626C651.36 546.499 651.252 547.249 651.145 547.905C654.426 569.56 653.91 609.177 653.794 615.96H643.402C643.306 608.313 642.423 538.397 642.097 536.262C641.753 534.003 637.408 525.402 630.696 521.867C623.984 518.333 618.184 506.639 618.184 506.639H620.322C620.322 506.639 624.289 513.808 629.932 517.774C630.752 518.35 631.601 518.83 632.472 519.28C632.27 512.82 634.717 506.639 634.717 506.639L635.872 507.706C634.312 514.092 634.518 518.182 634.99 520.53C636.885 521.48 638.85 522.579 640.826 524.437C646.681 516.823 649.973 499.413 649.973 499.413L651.472 500.231C651.472 500.231 650.984 504.961 649.536 510.91C648.438 515.417 645.211 523.901 643.709 527.753C645.202 529.827 646.684 532.507 648.131 536.055C648.295 535.804 648.48 535.573 648.696 535.377C652.51 531.93 659.679 515.639 659.679 515.639C661.413 511.851 658.763 501.91 658.763 501.91H660.764L661.661 510.604L666.695 505.112L667.61 505.875L662.271 512.739L659.526 521.437L666.695 513.502L667.61 514.878Z" fill="#263238"/>
<path d="M657.12 615.962H622.924C622.442 614.358 623.686 612.432 625.041 612.162C626.705 611.829 628.379 608.9 628.457 607.034C628.536 605.169 631.533 599.433 636.194 602.975C640.856 606.517 639.438 603.497 642.81 602.501C646.183 601.505 648.309 604.369 646.829 606.517C646.829 606.517 650.217 605.668 651.613 608.832C653.009 611.995 651.613 613.959 651.613 613.959C651.613 613.959 655.894 613.834 657.12 615.962Z" fill="#22D3EE"/>
<path d="M570.312 616.853C570.46 615.639 570.394 613.87 568.89 613.372C566.538 612.596 565.143 610.775 565.221 608.714C565.3 606.653 562.824 604.649 560.968 606.579C559.112 608.509 559.359 605.094 556.882 604.264C554.406 603.434 552.307 605.449 552.985 607.289C553.663 609.13 551.22 610.28 548.294 608.714C545.369 607.149 542.149 609.996 542.769 612.225C543.388 614.453 542.881 614.702 541.03 613.959C539.461 613.329 536.853 614.748 536.798 616.853H570.312Z" fill="#22D3EE"/>
<path d="M535.604 542.369C535.523 542.074 535.475 541.734 535.451 541.362C535.328 539.274 533.335 539.605 531.638 539.321C530.313 539.1 533.821 535.753 531.15 534.673C530.654 534.473 530.114 534.246 529.861 533.775C529.526 533.151 529.865 532.331 530.443 531.923C531.02 531.514 531.763 531.428 532.47 531.415C532.905 530.886 532.552 530.089 532.13 529.547C531.709 529.007 531.193 528.391 531.352 527.724C531.593 526.717 533.001 526.68 534.019 526.876C534.394 526.268 534.388 525.507 534.57 524.815C534.752 524.123 535.302 523.397 536.012 523.484C536.68 523.566 537.09 524.321 537.746 524.475C538.507 524.654 539.166 523.981 539.764 523.476C540.361 522.971 541.407 522.656 541.817 523.322C542.064 523.72 541.916 524.276 542.173 524.668C542.616 525.348 543.669 524.926 544.322 524.444C544.975 523.963 546.016 523.526 546.476 524.194C546.616 524.399 546.647 524.657 546.729 524.892C547.038 525.784 548.003 526.228 548.753 526.8C549.503 527.373 550.099 528.51 549.463 529.208C549.15 529.552 548.599 529.691 548.443 530.131C548.248 530.679 548.809 531.17 549.252 531.548C549.99 532.177 550.124 534.054 549.148 534.568C548.739 534.784 548.138 534.849 548.038 535.302C547.949 535.706 548.358 536.02 548.631 536.332C549.38 537.187 549.063 538.728 548.038 539.219C547.803 539.331 547.516 539.423 547.43 539.668C547.368 539.844 547.436 540.034 547.485 540.213C547.581 540.553 547.612 540.908 547.58 541.258C547.569 541.379 547.544 541.509 547.453 541.587C547.37 541.658 547.252 541.669 547.144 541.674C545.735 541.737 545.055 541.238 544.195 542.464C544.112 542.582 544.025 542.704 543.902 542.776C543.786 542.844 543.647 542.863 543.513 542.873C542.545 542.954 541.91 542.348 541.025 542.236C539.796 542.08 539.537 542.713 538.455 543.221C536.75 544.022 535.924 543.528 535.604 542.369Z" fill="#22D3EE"/>
<path d="M551.833 540.616C551.751 540.321 551.704 539.983 551.68 539.609C551.557 537.522 549.564 537.852 547.867 537.57C546.542 537.349 550.05 534.002 547.379 532.922C546.883 532.722 546.343 532.495 546.09 532.024C545.755 531.4 546.094 530.58 546.672 530.171C547.249 529.762 547.992 529.675 548.701 529.663C549.136 529.133 548.782 528.337 548.361 527.795C547.939 527.253 547.424 526.638 547.583 525.971C547.824 524.965 549.232 524.928 550.249 525.124C550.624 524.515 550.618 523.754 550.8 523.062C550.983 522.371 551.532 521.645 552.242 521.731C552.911 521.813 553.32 522.568 553.976 522.723C554.738 522.902 555.397 522.229 555.994 521.724C556.592 521.219 557.637 520.904 558.048 521.569C558.295 521.968 558.147 522.524 558.403 522.916C558.846 523.595 559.899 523.174 560.552 522.692C561.205 522.21 562.246 521.773 562.706 522.442C562.847 522.647 562.877 522.905 562.959 523.14C563.268 524.032 564.233 524.475 564.984 525.048C565.734 525.621 566.33 526.757 565.694 527.455C565.38 527.799 564.829 527.938 564.673 528.378C564.479 528.927 565.039 529.417 565.482 529.796C566.22 530.424 566.355 532.302 565.379 532.816C564.97 533.032 564.369 533.098 564.269 533.549C564.179 533.954 564.588 534.267 564.862 534.579C565.61 535.434 565.292 536.975 564.269 537.466C564.034 537.579 563.747 537.67 563.66 537.916C563.599 538.09 563.667 538.282 563.716 538.461C563.812 538.799 563.842 539.156 563.81 539.506C563.799 539.626 563.775 539.756 563.683 539.835C563.6 539.906 563.483 539.917 563.375 539.921C561.965 539.985 561.286 539.486 560.426 540.712C560.344 540.829 560.257 540.951 560.132 541.024C560.016 541.092 559.878 541.11 559.743 541.121C558.775 541.201 558.14 540.596 557.256 540.483C556.027 540.327 555.767 540.96 554.685 541.468C552.979 542.268 552.153 541.776 551.833 540.616Z" fill="#22D3EE"/>
<path d="M553.397 530.281C553.316 529.986 553.268 529.646 553.244 529.274C553.121 527.186 551.128 527.517 549.431 527.233C548.106 527.012 551.614 523.665 548.943 522.585C548.447 522.385 547.907 522.158 547.654 521.687C547.319 521.063 547.658 520.243 548.236 519.834C548.813 519.425 549.556 519.338 550.263 519.326C550.698 518.796 550.345 518 549.923 517.458C549.502 516.917 548.985 516.301 549.145 515.634C549.386 514.628 550.794 514.591 551.812 514.787C552.187 514.178 552.181 513.417 552.363 512.725C552.545 512.034 553.095 511.308 553.805 511.394C554.474 511.476 554.883 512.231 555.537 512.386C556.299 512.565 556.958 511.892 557.555 511.387C558.153 510.882 559.198 510.567 559.609 511.232C559.856 511.631 559.708 512.186 559.964 512.579C560.407 513.258 561.46 512.837 562.113 512.355C562.766 511.873 563.807 511.436 564.267 512.105C564.408 512.31 564.439 512.568 564.52 512.803C564.829 513.695 565.794 514.138 566.545 514.711C567.295 515.282 567.891 516.42 567.255 517.118C566.941 517.462 566.39 517.601 566.234 518.041C566.04 518.589 566.6 519.082 567.043 519.459C567.781 520.087 567.916 521.965 566.94 522.479C566.531 522.695 565.93 522.76 565.828 523.212C565.739 523.617 566.148 523.93 566.421 524.242C567.17 525.097 566.852 526.638 565.828 527.129C565.593 527.242 565.306 527.333 565.218 527.579C565.156 527.755 565.224 527.945 565.274 528.124C565.37 528.462 565.4 528.818 565.368 529.169C565.357 529.289 565.332 529.419 565.241 529.496C565.158 529.567 565.041 529.578 564.933 529.583C563.523 529.646 562.844 529.147 561.984 530.373C561.9 530.491 561.814 530.613 561.69 530.685C561.574 530.753 561.435 530.772 561.301 530.782C560.333 530.863 559.698 530.257 558.814 530.145C557.585 529.989 557.325 530.622 556.243 531.13C554.543 531.933 553.717 531.44 553.397 530.281Z" fill="#22D3EE"/>
<path d="M564.088 535.428C564.006 535.133 563.958 534.795 563.937 534.422C563.813 532.334 561.82 532.665 560.123 532.382C558.798 532.161 562.306 528.814 559.635 527.735C559.14 527.534 558.599 527.307 558.346 526.836C558.011 526.212 558.351 525.392 558.928 524.985C559.505 524.575 560.248 524.489 560.957 524.477C561.392 523.947 561.039 523.15 560.617 522.608C560.196 522.066 559.678 521.452 559.839 520.785C560.08 519.778 561.488 519.741 562.505 519.937C562.881 519.329 562.874 518.568 563.057 517.876C563.239 517.184 563.788 516.459 564.499 516.545C565.167 516.627 565.576 517.382 566.233 517.536C566.994 517.715 567.653 517.042 568.251 516.537C568.848 516.033 569.893 515.718 570.304 516.383C570.551 516.781 570.403 517.337 570.659 517.729C571.102 518.409 572.155 517.987 572.809 517.506C573.462 517.024 574.502 516.587 574.962 517.257C575.103 517.462 575.134 517.72 575.216 517.955C575.524 518.847 576.489 519.29 577.24 519.863C577.99 520.435 578.586 521.572 577.95 522.27C577.637 522.615 577.085 522.754 576.929 523.194C576.735 523.742 577.295 524.234 577.739 524.611C578.477 525.239 578.611 527.117 577.635 527.631C577.226 527.847 576.624 527.914 576.523 528.364C576.434 528.769 576.843 529.082 577.116 529.394C577.865 530.25 577.549 531.791 576.523 532.282C576.289 532.394 576.002 532.485 575.915 532.731C575.853 532.905 575.921 533.097 575.971 533.276C576.066 533.614 576.097 533.971 576.065 534.321C576.054 534.442 576.029 534.571 575.938 534.65C575.855 534.721 575.737 534.732 575.629 534.737C574.22 534.8 573.54 534.301 572.68 535.527C572.599 535.644 572.511 535.766 572.387 535.839C572.271 535.907 572.132 535.925 571.998 535.936C571.028 536.017 570.395 535.411 569.511 535.299C568.282 535.143 568.022 535.776 566.94 536.284C565.234 537.08 564.408 536.588 564.088 535.428Z" fill="#22D3EE"/>
<path d="M574.893 533.051C574.811 532.756 574.763 532.418 574.742 532.044C574.618 529.956 572.625 530.287 570.928 530.004C569.603 529.783 573.111 526.436 570.44 525.357C569.944 525.156 569.404 524.929 569.151 524.458C568.816 523.834 569.155 523.015 569.733 522.607C570.31 522.198 571.053 522.111 571.76 522.099C572.196 521.569 571.842 520.773 571.42 520.231C570.999 519.69 570.482 519.074 570.642 518.407C570.883 517.401 572.291 517.364 573.307 517.56C573.682 516.951 573.676 516.19 573.858 515.498C574.041 514.807 574.59 514.081 575.301 514.167C575.969 514.249 576.378 515.004 577.034 515.159C577.796 515.338 578.455 514.665 579.052 514.16C579.65 513.655 580.695 513.34 581.106 514.005C581.353 514.404 581.205 514.96 581.461 515.352C581.904 516.031 582.957 515.61 583.61 515.128C584.263 514.646 585.304 514.209 585.764 514.878C585.905 515.083 585.936 515.341 586.017 515.576C586.326 516.468 587.291 516.911 588.042 517.484C588.792 518.057 589.388 519.193 588.752 519.891C588.438 520.235 587.887 520.376 587.731 520.814C587.537 521.362 588.097 521.853 588.54 522.232C589.278 522.86 589.413 524.738 588.437 525.252C588.028 525.468 587.427 525.533 587.325 525.985C587.236 526.39 587.645 526.703 587.918 527.015C588.667 527.87 588.349 529.411 587.324 529.902C587.089 530.015 586.802 530.106 586.715 530.352C586.654 530.528 586.722 530.718 586.771 530.897C586.867 531.235 586.898 531.591 586.865 531.942C586.854 532.062 586.83 532.192 586.739 532.271C586.655 532.342 586.538 532.353 586.43 532.357C585.02 532.421 584.341 531.922 583.481 533.148C583.397 533.265 583.311 533.387 583.187 533.46C583.072 533.528 582.933 533.546 582.798 533.557C581.83 533.637 581.197 533.032 580.311 532.919C579.082 532.763 578.822 533.396 577.74 533.904C576.039 534.703 575.213 534.21 574.893 533.051Z" fill="#22D3EE"/>
<path d="M575.033 544.607C574.969 544.374 574.932 544.109 574.915 543.815C574.817 542.171 573.247 542.432 571.911 542.21C570.868 542.035 573.63 539.4 571.527 538.55C571.136 538.393 570.712 538.214 570.513 537.843C570.249 537.352 570.516 536.707 570.971 536.384C571.427 536.063 572.01 535.993 572.568 535.984C572.91 535.567 572.631 534.939 572.299 534.513C571.967 534.087 571.561 533.602 571.686 533.077C571.876 532.283 572.985 532.255 573.784 532.41C574.081 531.931 574.075 531.332 574.218 530.787C574.362 530.242 574.796 529.671 575.355 529.739C575.881 529.804 576.202 530.398 576.72 530.518C577.319 530.66 577.839 530.129 578.308 529.731C578.779 529.333 579.602 529.086 579.925 529.609C580.119 529.922 580.002 530.359 580.204 530.668C580.553 531.204 581.382 530.872 581.897 530.492C582.411 530.112 583.231 529.768 583.592 530.296C583.703 530.458 583.728 530.66 583.791 530.846C584.035 531.548 584.793 531.897 585.384 532.348C585.976 532.799 586.444 533.694 585.943 534.244C585.696 534.516 585.262 534.625 585.139 534.971C584.986 535.404 585.426 535.79 585.777 536.088C586.357 536.582 586.464 538.061 585.695 538.465C585.372 538.635 584.9 538.688 584.821 539.043C584.75 539.361 585.073 539.608 585.287 539.853C585.877 540.527 585.627 541.74 584.819 542.128C584.634 542.216 584.409 542.288 584.339 542.481C584.29 542.619 584.344 542.77 584.384 542.911C584.46 543.178 584.484 543.459 584.458 543.734C584.449 543.828 584.43 543.93 584.358 543.991C584.293 544.047 584.2 544.056 584.114 544.059C583.004 544.109 582.469 543.717 581.792 544.682C581.727 544.774 581.659 544.87 581.56 544.927C581.469 544.981 581.359 544.995 581.254 545.003C580.491 545.066 579.993 544.589 579.296 544.501C578.33 544.377 578.125 544.876 577.272 545.278C575.935 545.909 575.285 545.521 575.033 544.607Z" fill="#22D3EE"/>
<path d="M581.089 540.616C581.007 540.321 580.959 539.983 580.936 539.609C580.813 537.522 578.819 537.852 577.122 537.57C575.798 537.349 579.306 534.002 576.635 532.922C576.139 532.722 575.599 532.495 575.345 532.024C575.01 531.4 575.348 530.58 575.927 530.171C576.505 529.762 577.248 529.675 577.956 529.663C578.392 529.133 578.038 528.337 577.617 527.795C577.195 527.253 576.678 526.638 576.838 525.971C577.079 524.965 578.487 524.928 579.505 525.124C579.88 524.515 579.874 523.754 580.056 523.062C580.238 522.371 580.788 521.645 581.498 521.731C582.167 521.813 582.576 522.568 583.232 522.723C583.993 522.902 584.653 522.229 585.25 521.724C585.848 521.219 586.893 520.904 587.304 521.569C587.551 521.968 587.402 522.524 587.659 522.916C588.102 523.595 589.155 523.174 589.808 522.692C590.461 522.21 591.502 521.773 591.962 522.442C592.102 522.647 592.133 522.905 592.215 523.14C592.524 524.032 593.489 524.475 594.239 525.048C594.99 525.621 595.586 526.757 594.949 527.455C594.636 527.799 594.085 527.938 593.929 528.378C593.734 528.927 594.295 529.417 594.738 529.796C595.476 530.424 595.61 532.302 594.635 532.816C594.225 533.032 593.625 533.098 593.523 533.549C593.433 533.954 593.842 534.267 594.116 534.579C594.865 535.434 594.548 536.975 593.523 537.466C593.288 537.579 593.001 537.67 592.915 537.916C592.853 538.09 592.921 538.282 592.97 538.461C593.066 538.799 593.097 539.156 593.064 539.506C593.053 539.626 593.029 539.756 592.938 539.835C592.854 539.906 592.737 539.917 592.629 539.921C591.219 539.985 590.54 539.486 589.68 540.712C589.598 540.829 589.512 540.951 589.386 541.024C589.271 541.092 589.132 541.11 588.997 541.121C588.029 541.201 587.395 540.596 586.51 540.483C585.281 540.327 585.022 540.96 583.939 541.468C582.233 542.268 581.409 541.776 581.089 540.616Z" fill="#22D3EE"/>
<path d="M564.088 522.715C564.006 522.42 563.958 522.082 563.937 521.708C563.813 519.621 561.82 519.951 560.123 519.667C558.798 519.446 562.306 516.099 559.635 515.02C559.14 514.819 558.599 514.592 558.346 514.121C558.011 513.497 558.351 512.678 558.928 512.27C559.505 511.861 560.248 511.774 560.957 511.762C561.392 511.232 561.039 510.436 560.617 509.894C560.196 509.353 559.678 508.737 559.839 508.07C560.08 507.064 561.488 507.026 562.505 507.223C562.881 506.614 562.874 505.853 563.057 505.161C563.239 504.47 563.788 503.744 564.499 503.83C565.167 503.912 565.576 504.667 566.233 504.822C566.994 505.001 567.653 504.328 568.251 503.823C568.848 503.318 569.893 503.003 570.304 503.668C570.551 504.067 570.403 504.622 570.659 505.015C571.102 505.694 572.155 505.272 572.809 504.791C573.462 504.309 574.502 503.872 574.962 504.541C575.103 504.746 575.134 505.004 575.216 505.238C575.524 506.131 576.489 506.574 577.24 507.147C577.99 507.72 578.586 508.856 577.95 509.554C577.637 509.898 577.085 510.037 576.929 510.477C576.735 511.025 577.295 511.516 577.739 511.895C578.477 512.523 578.611 514.401 577.635 514.915C577.226 515.131 576.624 515.197 576.523 515.648C576.434 516.053 576.843 516.366 577.116 516.678C577.865 517.533 577.549 519.074 576.523 519.565C576.289 519.678 576.002 519.769 575.915 520.015C575.853 520.191 575.921 520.381 575.971 520.56C576.066 520.899 576.097 521.254 576.065 521.605C576.054 521.725 576.029 521.855 575.938 521.932C575.855 522.003 575.737 522.014 575.629 522.02C574.22 522.084 573.54 521.585 572.68 522.811C572.599 522.928 572.511 523.05 572.387 523.123C572.271 523.191 572.132 523.209 571.998 523.22C571.028 523.3 570.395 522.695 569.511 522.582C568.282 522.426 568.022 523.059 566.94 523.567C565.234 524.367 564.408 523.875 564.088 522.715Z" fill="#22D3EE"/>
<path d="M550.207 523.425C550.126 523.13 550.078 522.792 550.056 522.419C549.933 520.331 547.939 520.662 546.242 520.377C544.918 520.157 548.426 516.809 545.755 515.73C545.259 515.529 544.719 515.302 544.465 514.831C544.13 514.208 544.47 513.388 545.047 512.98C545.625 512.571 546.368 512.484 547.075 512.472C547.51 511.943 547.157 511.146 546.735 510.604C546.313 510.064 545.796 509.447 545.957 508.78C546.198 507.774 547.606 507.737 548.623 507.933C548.998 507.324 548.992 506.563 549.175 505.872C549.357 505.18 549.906 504.454 550.617 504.541C551.285 504.622 551.694 505.377 552.351 505.532C553.112 505.711 553.771 505.038 554.369 504.533C554.966 504.028 556.011 503.713 556.422 504.379C556.669 504.777 556.521 505.333 556.777 505.725C557.22 506.404 558.273 505.983 558.926 505.501C559.58 505.019 560.62 504.582 561.08 505.251C561.221 505.456 561.252 505.714 561.334 505.949C561.642 506.841 562.607 507.284 563.358 507.857C564.108 508.428 564.704 509.566 564.068 510.264C563.755 510.609 563.203 510.747 563.047 511.188C562.853 511.736 563.413 512.227 563.856 512.605C564.594 513.233 564.729 515.111 563.753 515.625C563.344 515.841 562.743 515.908 562.641 516.358C562.552 516.763 562.961 517.076 563.234 517.388C563.983 518.244 563.665 519.785 562.64 520.276C562.405 520.388 562.118 520.479 562.031 520.725C561.97 520.901 562.038 521.091 562.087 521.27C562.183 521.61 562.214 521.965 562.181 522.315C562.17 522.436 562.146 522.565 562.055 522.642C561.971 522.713 561.854 522.724 561.746 522.729C560.336 522.792 559.657 522.294 558.797 523.519C558.713 523.637 558.627 523.759 558.503 523.831C558.388 523.899 558.249 523.918 558.114 523.929C557.146 524.009 556.513 523.404 555.627 523.291C554.398 523.135 554.138 523.768 553.056 524.276C551.353 525.077 550.529 524.585 550.207 523.425Z" fill="#22D3EE"/>
<path d="M541.777 529.106C541.695 528.811 541.648 528.473 541.624 528.099C541.501 526.011 539.508 526.342 537.811 526.059C536.486 525.839 539.994 522.491 537.323 521.412C536.827 521.211 536.287 520.984 536.034 520.513C535.699 519.89 536.038 519.07 536.616 518.662C537.193 518.253 537.936 518.166 538.643 518.154C539.078 517.624 538.725 516.828 538.303 516.286C537.882 515.745 537.364 515.129 537.525 514.462C537.766 513.456 539.174 513.419 540.192 513.615C540.567 513.006 540.561 512.245 540.743 511.553C540.925 510.862 541.475 510.136 542.185 510.223C542.853 510.304 543.263 511.059 543.917 511.214C544.678 511.393 545.338 510.72 545.935 510.215C546.533 509.71 547.578 509.395 547.989 510.06C548.236 510.459 548.088 511.015 548.344 511.407C548.787 512.086 549.84 511.665 550.493 511.183C551.146 510.701 552.187 510.264 552.647 510.933C552.788 511.138 552.818 511.396 552.9 511.631C553.209 512.523 554.174 512.966 554.924 513.539C555.675 514.112 556.271 515.248 555.635 515.946C555.321 516.29 554.77 516.429 554.614 516.869C554.42 517.418 554.98 517.909 555.423 518.287C556.161 518.915 556.295 520.793 555.32 521.307C554.91 521.523 554.31 521.589 554.21 522.04C554.12 522.445 554.529 522.758 554.802 523.07C555.551 523.926 555.235 525.466 554.21 525.957C553.975 526.07 553.688 526.161 553.601 526.407C553.539 526.581 553.607 526.773 553.657 526.952C553.753 527.291 553.783 527.647 553.751 527.997C553.74 528.118 553.715 528.247 553.624 528.324C553.541 528.395 553.424 528.406 553.316 528.411C551.906 528.474 551.226 527.975 550.366 529.201C550.283 529.319 550.197 529.441 550.073 529.513C549.957 529.581 549.818 529.6 549.684 529.611C548.716 529.691 548.081 529.086 547.197 528.973C545.968 528.817 545.708 529.45 544.626 529.958C542.921 530.758 542.097 530.265 541.777 529.106Z" fill="#22D3EE"/>
<path d="M544.333 536.285C544.333 536.285 547.859 541.271 549.074 542.85C550.289 544.431 556.37 554.279 557.196 560.793C557.284 561.488 557.372 562.087 557.457 562.61C554.841 579.869 555.252 611.447 555.344 616.853H563.628C563.704 610.757 564.408 555.032 564.669 553.329C564.943 551.529 568.407 544.674 573.757 541.856C579.107 539.04 583.729 529.719 583.729 529.719H582.025C582.025 529.719 578.864 535.433 574.365 538.594C573.712 539.052 573.036 539.435 572.341 539.793C572.501 534.644 570.551 529.717 570.551 529.717L569.631 530.568C570.874 535.657 570.71 538.916 570.335 540.789C568.825 541.546 567.259 542.421 565.683 543.902C561.017 537.834 558.392 523.956 558.392 523.956L557.197 524.61C557.197 524.61 557.586 528.378 558.74 533.12C559.614 536.711 562.187 543.474 563.384 546.545C562.194 548.197 561.012 550.334 559.859 553.161C559.728 552.96 559.581 552.777 559.408 552.621C556.368 549.872 550.654 536.889 550.654 536.889C549.272 533.87 551.383 525.947 551.383 525.947H549.788L549.073 532.876L545.06 528.499L544.33 529.107L548.585 534.579L550.773 541.512L545.058 535.187L544.333 536.285Z" fill="#263238"/>
<path d="M552.695 616.853H579.951C580.334 615.574 579.343 614.04 578.264 613.823C576.937 613.558 575.603 611.223 575.54 609.736C575.477 608.25 573.088 603.678 569.373 606.502C565.658 609.326 566.787 606.917 564.099 606.125C561.411 605.331 559.715 607.613 560.895 609.326C560.895 609.326 558.195 608.649 557.083 611.169C555.971 613.691 557.083 615.256 557.083 615.256C557.083 615.256 553.671 615.157 552.695 616.853Z" fill="#22D3EE"/>
<path d="M144.708 620.581C144.894 619.059 144.812 616.839 142.923 616.217C139.971 615.244 138.222 612.957 138.321 610.373C138.42 607.788 135.313 605.271 132.983 607.695C130.653 610.118 130.964 605.832 127.857 604.791C124.751 603.75 122.117 606.276 122.967 608.586C123.818 610.896 120.753 612.338 117.082 610.374C113.411 608.41 109.372 611.983 110.149 614.779C110.926 617.575 110.289 617.886 107.967 616.955C105.999 616.164 102.727 617.944 102.657 620.585H144.708V620.581Z" fill="#22D3EE"/>
<path d="M160.998 527.132C161.099 526.762 161.161 526.337 161.189 525.869C161.345 523.249 163.845 523.665 165.972 523.309C167.634 523.032 163.233 518.833 166.585 517.478C167.207 517.226 167.884 516.942 168.202 516.351C168.623 515.569 168.197 514.54 167.472 514.027C166.746 513.514 165.815 513.406 164.927 513.389C164.38 512.725 164.825 511.725 165.353 511.045C165.883 510.366 166.53 509.594 166.329 508.757C166.026 507.494 164.26 507.448 162.985 507.693C162.514 506.931 162.523 505.975 162.293 505.107C162.064 504.239 161.374 503.329 160.483 503.438C159.643 503.54 159.131 504.488 158.308 504.681C157.352 504.907 156.525 504.062 155.776 503.427C155.025 502.793 153.714 502.398 153.199 503.233C152.89 503.733 153.075 504.429 152.754 504.922C152.197 505.774 150.876 505.246 150.057 504.641C149.237 504.036 147.93 503.488 147.355 504.327C147.179 504.585 147.138 504.908 147.037 505.204C146.649 506.324 145.438 506.881 144.497 507.599C143.555 508.317 142.807 509.744 143.606 510.619C143.999 511.052 144.691 511.226 144.887 511.777C145.131 512.464 144.429 513.082 143.871 513.554C142.945 514.342 142.777 516.698 144.001 517.343C144.515 517.614 145.269 517.697 145.395 518.264C145.508 518.77 144.994 519.165 144.651 519.556C143.712 520.629 144.109 522.562 145.395 523.178C145.689 523.319 146.05 523.435 146.16 523.742C146.238 523.961 146.152 524.202 146.09 524.426C145.971 524.85 145.931 525.298 145.973 525.738C145.987 525.888 146.017 526.052 146.132 526.15C146.235 526.24 146.383 526.254 146.519 526.26C148.287 526.339 149.141 525.713 150.219 527.251C150.322 527.4 150.43 527.551 150.588 527.642C150.734 527.727 150.907 527.75 151.076 527.764C152.291 527.864 153.086 527.106 154.196 526.964C155.737 526.768 156.064 527.562 157.422 528.201C159.56 529.206 160.596 528.587 160.998 527.132Z" fill="#22D3EE"/>
<path d="M140.635 524.932C140.737 524.562 140.799 524.137 140.827 523.669C140.982 521.049 143.482 521.464 145.61 521.109C147.271 520.831 142.871 516.633 146.223 515.278C146.845 515.026 147.521 514.742 147.839 514.15C148.261 513.369 147.835 512.339 147.109 511.827C146.383 511.314 145.452 511.206 144.565 511.189C144.018 510.525 144.463 509.525 144.991 508.845C145.52 508.166 146.167 507.394 145.967 506.557C145.664 505.294 143.898 505.248 142.622 505.493C142.151 504.731 142.161 503.775 141.93 502.907C141.702 502.039 141.012 501.128 140.121 501.238C139.281 501.34 138.768 502.288 137.945 502.481C136.99 502.706 136.162 501.862 135.413 501.227C134.663 500.593 133.352 500.197 132.836 501.033C132.528 501.533 132.713 502.229 132.392 502.722C131.834 503.574 130.514 503.046 129.694 502.441C128.874 501.836 127.568 501.287 126.992 502.127C126.816 502.385 126.776 502.709 126.674 503.004C126.287 504.124 125.076 504.681 124.134 505.399C123.193 506.117 122.445 507.544 123.243 508.419C123.637 508.851 124.329 509.026 124.525 509.577C124.769 510.264 124.066 510.882 123.509 511.354C122.583 512.142 122.414 514.498 123.639 515.143C124.153 515.413 124.906 515.497 125.033 516.064C125.146 516.57 124.632 516.965 124.29 517.356C123.352 518.429 123.748 520.362 125.035 520.978C125.328 521.119 125.689 521.234 125.799 521.542C125.876 521.761 125.791 522.002 125.729 522.226C125.61 522.65 125.57 523.098 125.612 523.538C125.626 523.688 125.657 523.851 125.771 523.95C125.874 524.04 126.023 524.054 126.159 524.06C127.926 524.139 128.779 523.513 129.858 525.051C129.961 525.199 130.07 525.351 130.227 525.442C130.372 525.527 130.547 525.55 130.715 525.564C131.93 525.664 132.725 524.904 133.835 524.764C135.376 524.568 135.704 525.361 137.061 526.001C139.199 527.006 140.234 526.387 140.635 524.932Z" fill="#22D3EE"/>
<path d="M138.673 511.964C138.775 511.594 138.836 511.169 138.864 510.701C139.02 508.081 141.521 508.496 143.649 508.141C145.31 507.863 140.91 503.665 144.262 502.31C144.884 502.058 145.56 501.774 145.879 501.182C146.3 500.401 145.874 499.371 145.148 498.859C144.424 498.346 143.491 498.238 142.604 498.221C142.057 497.557 142.502 496.557 143.031 495.877C143.561 495.198 144.208 494.426 144.007 493.589C143.705 492.326 141.938 492.28 140.663 492.525C140.192 491.762 140.201 490.807 139.971 489.939C139.743 489.071 139.052 488.16 138.162 488.27C137.323 488.372 136.809 489.32 135.988 489.513C135.032 489.738 134.204 488.892 133.455 488.259C132.707 487.625 131.396 487.229 130.879 488.065C130.57 488.565 130.755 489.261 130.434 489.754C129.876 490.608 128.556 490.078 127.737 489.473C126.917 488.867 125.61 488.319 125.035 489.159C124.858 489.417 124.818 489.741 124.716 490.036C124.329 491.156 123.118 491.713 122.177 492.431C121.235 493.149 120.487 494.576 121.286 495.453C121.679 495.885 122.371 496.059 122.566 496.611C122.81 497.299 122.107 497.915 121.55 498.388C120.623 499.175 120.457 501.533 121.679 502.177C122.194 502.447 122.947 502.53 123.074 503.097C123.186 503.603 122.672 503.999 122.329 504.389C121.391 505.462 121.787 507.395 123.074 508.012C123.369 508.152 123.728 508.268 123.838 508.575C123.915 508.794 123.83 509.035 123.767 509.259C123.648 509.684 123.608 510.131 123.65 510.571C123.663 510.721 123.694 510.885 123.809 510.984C123.912 511.073 124.06 511.087 124.196 511.093C125.964 511.172 126.816 510.547 127.896 512.085C127.999 512.233 128.107 512.384 128.263 512.475C128.41 512.56 128.583 512.583 128.751 512.597C129.966 512.698 130.761 511.938 131.871 511.797C133.412 511.601 133.74 512.395 135.097 513.034C137.237 514.038 138.271 513.42 138.673 511.964Z" fill="#22D3EE"/>
<path d="M125.26 518.424C125.362 518.054 125.424 517.629 125.451 517.161C125.607 514.541 128.107 514.956 130.235 514.601C131.896 514.323 127.496 510.125 130.848 508.77C131.47 508.518 132.146 508.234 132.464 507.642C132.886 506.861 132.46 505.831 131.734 505.319C131.01 504.806 130.077 504.697 129.189 504.681C128.643 504.016 129.088 503.017 129.616 502.337C130.145 501.658 130.792 500.886 130.591 500.049C130.289 498.786 128.522 498.74 127.247 498.985C126.776 498.221 126.785 497.267 126.555 496.399C126.327 495.531 125.637 494.62 124.746 494.728C123.906 494.83 123.393 495.778 122.572 495.971C121.616 496.197 120.789 495.352 120.04 494.718C119.289 494.083 117.978 493.688 117.463 494.523C117.154 495.023 117.339 495.72 117.018 496.212C116.461 497.066 115.141 496.536 114.321 495.931C113.501 495.326 112.195 494.778 111.619 495.618C111.443 495.876 111.403 496.198 111.301 496.495C110.913 497.614 109.703 498.172 108.761 498.89C107.819 499.607 107.072 501.034 107.87 501.91C108.264 502.342 108.955 502.516 109.15 503.068C109.394 503.756 108.691 504.372 108.134 504.845C107.207 505.632 107.039 507.99 108.264 508.634C108.778 508.904 109.531 508.987 109.658 509.554C109.771 510.06 109.256 510.456 108.914 510.846C107.975 511.919 108.372 513.852 109.658 514.468C109.951 514.609 110.312 514.725 110.422 515.032C110.499 515.251 110.414 515.492 110.353 515.716C110.234 516.141 110.194 516.588 110.235 517.028C110.249 517.178 110.28 517.342 110.396 517.441C110.499 517.53 110.648 517.544 110.783 517.55C112.551 517.629 113.404 517.004 114.483 518.542C114.586 518.69 114.694 518.841 114.85 518.932C114.997 519.017 115.17 519.04 115.338 519.054C116.553 519.155 117.348 518.396 118.459 518.254C120 518.058 120.327 518.852 121.684 519.491C123.824 520.498 124.858 519.879 125.26 518.424Z" fill="#22D3EE"/>
<path d="M111.704 515.441C111.806 515.071 111.867 514.646 111.895 514.178C112.051 511.558 114.551 511.973 116.678 511.618C118.34 511.34 113.939 507.142 117.291 505.787C117.914 505.535 118.59 505.251 118.908 504.659C119.329 503.878 118.903 502.848 118.178 502.336C117.453 501.823 116.521 501.715 115.633 501.698C115.087 501.033 115.531 500.034 116.059 499.354C116.589 498.675 117.236 497.903 117.035 497.066C116.732 495.803 114.966 495.757 113.691 496.002C113.22 495.238 113.229 494.284 112.999 493.416C112.771 492.548 112.08 491.637 111.189 491.745C110.351 491.847 109.838 492.795 109.016 492.988C108.06 493.214 107.232 492.369 106.483 491.735C105.733 491.102 104.422 490.705 103.906 491.54C103.598 492.04 103.783 492.737 103.462 493.229C102.904 494.083 101.584 493.553 100.764 492.948C99.9445 492.343 98.6383 491.795 98.0624 492.635C97.8864 492.893 97.8462 493.215 97.7443 493.512C97.3568 494.631 96.1463 495.189 95.2044 495.907C94.2626 496.625 93.5153 498.051 94.3135 498.927C94.7073 499.359 95.399 499.533 95.5935 500.085C95.8375 500.773 95.1349 501.389 94.5791 501.862C93.6527 502.649 93.4859 505.005 94.7088 505.651C95.2229 505.921 95.9764 506.004 96.103 506.571C96.2157 507.077 95.7016 507.473 95.3588 507.863C94.4201 508.936 94.8169 510.869 96.103 511.486C96.3964 511.626 96.7577 511.742 96.8673 512.049C96.9445 512.268 96.8596 512.508 96.7963 512.733C96.6774 513.158 96.6372 513.605 96.6789 514.045C96.6928 514.197 96.7237 514.359 96.8395 514.458C96.943 514.547 97.0912 514.561 97.2271 514.567C98.9949 514.646 99.8488 514.021 100.926 515.559C101.03 515.707 101.138 515.858 101.296 515.949C101.442 516.034 101.615 516.057 101.783 516.071C102.999 516.172 103.794 515.413 104.904 515.271C106.445 515.075 106.772 515.869 108.129 516.508C110.268 517.513 111.302 516.896 111.704 515.441Z" fill="#22D3EE"/>
<path d="M111.528 529.941C111.608 529.649 111.656 529.314 111.678 528.947C111.8 526.884 113.769 527.211 115.445 526.932C116.754 526.712 113.288 523.407 115.927 522.34C116.416 522.142 116.949 521.918 117.2 521.452C117.532 520.836 117.196 520.027 116.626 519.622C116.055 519.218 115.321 519.133 114.622 519.121C114.191 518.597 114.542 517.81 114.959 517.276C115.375 516.741 115.885 516.133 115.727 515.474C115.49 514.479 114.099 514.444 113.093 514.637C112.721 514.036 112.729 513.284 112.55 512.6C112.369 511.916 111.826 511.2 111.125 511.285C110.464 511.365 110.061 512.111 109.412 512.264C108.661 512.441 108.009 511.776 107.418 511.277C106.828 510.778 105.795 510.467 105.389 511.124C105.145 511.518 105.292 512.066 105.038 512.454C104.6 513.125 103.561 512.708 102.915 512.233C102.27 511.757 101.242 511.325 100.788 511.986C100.649 512.188 100.618 512.444 100.538 512.676C100.232 513.558 99.2792 513.996 98.5381 514.561C97.797 515.126 97.2087 516.25 97.8371 516.939C98.1475 517.279 98.6908 517.418 98.8452 517.85C99.0366 518.392 98.484 518.877 98.0456 519.25C97.3168 519.871 97.184 521.727 98.149 522.233C98.5535 522.446 99.1464 522.511 99.2468 522.959C99.3348 523.357 98.9303 523.669 98.6616 523.977C97.922 524.821 98.2355 526.343 99.2483 526.83C99.4799 526.941 99.764 527.032 99.8505 527.273C99.9122 527.446 99.8443 527.634 99.7949 527.812C99.7007 528.147 99.6698 528.499 99.7023 528.845C99.7131 528.964 99.7378 529.092 99.8289 529.169C99.9107 529.24 100.026 529.251 100.134 529.255C101.527 529.317 102.199 528.825 103.048 530.037C103.13 530.152 103.215 530.273 103.338 530.344C103.454 530.41 103.59 530.429 103.723 530.44C104.68 530.518 105.305 529.921 106.179 529.81C107.393 529.655 107.649 530.281 108.719 530.784C110.396 531.575 111.211 531.087 111.528 529.941Z" fill="#22D3EE"/>
<path d="M103.931 524.932C104.033 524.562 104.095 524.137 104.123 523.669C104.279 521.049 106.78 521.464 108.907 521.109C110.569 520.831 106.168 516.633 109.52 515.278C110.143 515.026 110.819 514.742 111.137 514.15C111.558 513.369 111.132 512.339 110.407 511.827C109.683 511.314 108.75 511.206 107.862 511.189C107.316 510.525 107.76 509.525 108.29 508.845C108.819 508.166 109.466 507.394 109.266 506.557C108.963 505.294 107.197 505.248 105.921 505.493C105.45 504.731 105.46 503.775 105.23 502.907C105.001 502.039 104.311 501.128 103.42 501.238C102.58 501.34 102.068 502.288 101.245 502.481C100.289 502.706 99.4612 501.862 98.7124 501.227C97.962 500.593 96.6512 500.197 96.1355 501.033C95.8267 501.533 96.0119 502.229 95.6908 502.722C95.1334 503.574 93.8133 503.046 92.995 502.441C92.1751 501.836 90.8689 501.287 90.293 502.127C90.1169 502.385 90.0768 502.709 89.9749 503.004C89.5874 504.124 88.3769 504.681 87.435 505.399C86.4932 506.117 85.7459 507.544 86.5441 508.419C86.9379 508.851 87.6296 509.026 87.8241 509.577C88.0681 510.264 87.3655 510.882 86.8097 511.354C85.8833 512.142 85.7165 514.498 86.9394 515.143C87.4535 515.413 88.207 515.497 88.3336 516.064C88.4463 516.57 87.9322 516.965 87.591 517.356C86.6522 518.429 87.049 520.362 88.3352 520.978C88.6285 521.119 88.9898 521.234 89.0995 521.542C89.1767 521.761 89.0917 522.002 89.0284 522.226C88.9095 522.65 88.8694 523.098 88.9111 523.538C88.925 523.688 88.9559 523.851 89.0701 523.95C89.1736 524.04 89.3218 524.054 89.4577 524.06C91.2255 524.139 92.0794 523.513 93.1571 525.051C93.2605 525.199 93.3702 525.351 93.5246 525.442C93.6712 525.527 93.8442 525.55 94.0125 525.564C95.2276 525.664 96.0227 524.904 97.1329 524.764C98.6738 524.568 99.0011 525.361 100.358 526.001C102.495 527.006 103.53 526.387 103.931 524.932Z" fill="#22D3EE"/>
<path d="M125.26 502.473C125.362 502.103 125.424 501.678 125.451 501.21C125.607 498.59 128.107 499.005 130.235 498.65C131.896 498.372 127.496 494.174 130.848 492.819C131.47 492.567 132.146 492.283 132.464 491.691C132.886 490.91 132.46 489.88 131.734 489.368C131.01 488.855 130.077 488.747 129.189 488.73C128.643 488.065 129.088 487.066 129.616 486.386C130.145 485.707 130.792 484.935 130.591 484.098C130.289 482.835 128.522 482.789 127.247 483.034C126.776 482.272 126.785 481.316 126.555 480.448C126.327 479.58 125.637 478.669 124.746 478.777C123.906 478.879 123.393 479.827 122.572 480.02C121.616 480.246 120.789 479.401 120.04 478.767C119.289 478.132 117.978 477.737 117.463 478.572C117.154 479.072 117.339 479.769 117.018 480.261C116.461 481.115 115.141 480.585 114.321 479.98C113.501 479.375 112.195 478.827 111.619 479.667C111.443 479.925 111.403 480.249 111.301 480.544C110.913 481.663 109.703 482.221 108.761 482.939C107.819 483.656 107.072 485.083 107.87 485.959C108.264 486.391 108.955 486.565 109.15 487.117C109.394 487.804 108.691 488.421 108.134 488.894C107.207 489.681 107.039 492.039 108.264 492.683C108.778 492.953 109.531 493.036 109.658 493.603C109.771 494.109 109.256 494.505 108.914 494.895C107.975 495.968 108.372 497.901 109.658 498.517C109.951 498.658 110.312 498.774 110.422 499.081C110.499 499.3 110.414 499.541 110.353 499.765C110.234 500.19 110.194 500.637 110.235 501.077C110.249 501.227 110.28 501.391 110.396 501.49C110.499 501.579 110.648 501.593 110.783 501.599C112.551 501.678 113.404 501.053 114.483 502.591C114.586 502.739 114.694 502.89 114.85 502.981C114.997 503.066 115.17 503.089 115.338 503.103C116.553 503.204 117.348 502.444 118.459 502.303C120 502.107 120.327 502.901 121.684 503.54C123.824 504.547 124.858 503.928 125.26 502.473Z" fill="#22D3EE"/>
<path d="M142.675 503.364C142.777 502.994 142.838 502.569 142.866 502.101C143.022 499.481 145.522 499.896 147.649 499.541C149.311 499.263 144.91 495.065 148.262 493.709C148.885 493.458 149.561 493.174 149.879 492.582C150.301 491.801 149.874 490.771 149.149 490.259C148.423 489.746 147.492 489.638 146.604 489.621C146.058 488.956 146.502 487.957 147.03 487.277C147.56 486.599 148.207 485.826 148.006 484.989C147.704 483.726 145.937 483.68 144.662 483.925C144.191 483.161 144.2 482.207 143.97 481.339C143.742 480.471 143.051 479.56 142.161 479.67C141.321 479.772 140.808 480.72 139.985 480.913C139.029 481.138 138.202 480.294 137.453 479.659C136.703 479.024 135.392 478.629 134.876 479.465C134.567 479.965 134.752 480.661 134.431 481.154C133.874 482.007 132.554 481.478 131.734 480.873C130.914 480.267 129.608 479.719 129.032 480.559C128.856 480.817 128.816 481.14 128.714 481.436C128.326 482.556 127.116 483.113 126.174 483.831C125.232 484.549 124.485 485.976 125.283 486.851C125.677 487.283 126.369 487.458 126.565 488.009C126.809 488.696 126.106 489.314 125.549 489.786C124.622 490.574 124.454 492.931 125.678 493.575C126.193 493.845 126.946 493.929 127.073 494.495C127.185 495.002 126.671 495.397 126.328 495.788C125.39 496.861 125.786 498.794 127.073 499.41C127.366 499.55 127.727 499.666 127.837 499.973C127.916 500.194 127.829 500.434 127.767 500.657C127.649 501.082 127.608 501.53 127.65 501.97C127.664 502.12 127.695 502.283 127.809 502.382C127.913 502.472 128.061 502.486 128.197 502.492C129.965 502.57 130.818 501.945 131.896 503.483C131.999 503.631 132.108 503.783 132.265 503.874C132.412 503.959 132.585 503.982 132.753 503.996C133.968 504.096 134.763 503.338 135.873 503.196C137.414 503 137.742 503.793 139.099 504.433C141.239 505.438 142.273 504.819 142.675 503.364Z" fill="#22D3EE"/>
<path d="M153.253 510.491C153.355 510.121 153.416 509.696 153.444 509.228C153.6 506.608 156.1 507.023 158.228 506.668C159.889 506.39 155.489 502.192 158.841 500.837C159.463 500.585 160.139 500.301 160.457 499.709C160.879 498.928 160.452 497.898 159.727 497.386C159.001 496.873 158.07 496.763 157.182 496.748C156.636 496.083 157.08 495.084 157.608 494.404C158.138 493.725 158.785 492.953 158.584 492.116C158.282 490.853 156.515 490.807 155.24 491.052C154.769 490.289 154.778 489.334 154.548 488.466C154.32 487.598 153.629 486.687 152.738 486.795C151.9 486.897 151.387 487.845 150.565 488.04C149.609 488.265 148.781 487.419 148.032 486.786C147.284 486.152 145.971 485.756 145.455 486.592C145.147 487.092 145.332 487.788 145.011 488.281C144.453 489.133 143.133 488.605 142.315 488C141.495 487.395 140.189 486.846 139.613 487.686C139.437 487.944 139.397 488.268 139.295 488.563C138.907 489.683 137.697 490.24 136.755 490.958C135.813 491.676 135.066 493.103 135.864 493.98C136.258 494.412 136.95 494.586 137.144 495.138C137.388 495.826 136.686 496.442 136.128 496.915C135.202 497.702 135.035 500.06 136.259 500.704C136.774 500.974 137.527 501.057 137.654 501.624C137.766 502.13 137.252 502.526 136.909 502.916C135.971 503.989 136.367 505.922 137.654 506.539C137.947 506.679 138.308 506.795 138.418 507.102C138.495 507.321 138.41 507.562 138.347 507.786C138.228 508.211 138.188 508.658 138.23 509.098C138.243 509.248 138.274 509.412 138.39 509.511C138.494 509.6 138.642 509.614 138.778 509.62C140.546 509.699 141.398 509.074 142.477 510.612C142.581 510.76 142.689 510.911 142.846 511.002C142.993 511.087 143.166 511.11 143.334 511.124C144.549 511.225 145.344 510.466 146.454 510.324C147.995 510.128 148.323 510.922 149.68 511.561C151.817 512.565 152.851 511.946 153.253 510.491Z" fill="#22D3EE"/>
<path d="M150.046 519.499C150.046 519.499 145.622 525.754 144.097 527.736C142.571 529.719 134.944 542.075 133.906 550.248C133.795 551.12 133.686 551.87 133.579 552.527C136.86 574.181 136.344 613.799 136.229 620.581H125.836C125.74 612.934 124.857 543.019 124.531 540.883C124.187 538.624 119.842 530.023 113.13 526.489C106.419 522.954 100.618 511.26 100.618 511.26H102.756C102.756 511.26 106.723 518.429 112.366 522.395C113.186 522.971 114.035 523.452 114.906 523.901C114.704 517.441 117.151 511.26 117.151 511.26L118.306 512.329C116.746 518.715 116.952 522.803 117.424 525.153C119.319 526.103 121.284 527.2 123.261 529.058C129.115 521.444 132.407 504.034 132.407 504.034L133.906 504.852C133.906 504.852 133.419 509.582 131.97 515.531C130.873 520.038 127.646 528.522 126.143 532.374C127.636 534.448 129.119 537.128 130.565 540.676C130.729 540.425 130.914 540.195 131.13 539.999C134.944 536.551 142.113 520.26 142.113 520.26C143.847 516.473 141.197 506.531 141.197 506.531H143.198L144.095 515.225L149.129 509.733L150.044 510.496L144.705 517.36L141.96 526.058L149.129 518.123L150.046 519.499Z" fill="#263238"/>
<path d="M122.604 620.581H156.801C157.283 618.977 156.038 617.052 154.683 616.782C153.018 616.448 151.344 613.519 151.266 611.654C151.187 609.789 148.19 604.053 143.529 607.595C138.867 611.137 140.285 608.117 136.913 607.121C133.541 606.125 131.414 608.989 132.894 611.137C132.894 611.137 129.506 610.288 128.11 613.451C126.715 616.615 128.11 618.579 128.11 618.579C128.11 618.579 123.83 618.454 122.604 620.581Z" fill="#22D3EE"/>
<path d="M313.611 299.099L325.115 287.596V299.099" stroke="#263238" stroke-width="0.75" stroke-miterlimit="10" stroke-linecap="round" stroke-linejoin="round"/>
<path d="M326.948 299.099L338.451 287.596V299.099" stroke="#263238" stroke-width="0.75" stroke-miterlimit="10" stroke-linecap="round" stroke-linejoin="round"/>
<path d="M340.284 299.099L351.788 287.596V299.099" stroke="#263238" stroke-width="0.75" stroke-miterlimit="10" stroke-linecap="round" stroke-linejoin="round"/>
<path d="M348.984 299.099L360.489 287.596V299.099" stroke="#263238" stroke-width="0.75" stroke-miterlimit="10" stroke-linecap="round" stroke-linejoin="round"/>
<path d="M366.956 299.099L378.459 287.596V299.099" stroke="#263238" stroke-width="0.75" stroke-miterlimit="10" stroke-linecap="round" stroke-linejoin="round"/>
<path d="M380.292 299.099L391.796 287.596V299.099" stroke="#263238" stroke-width="0.75" stroke-miterlimit="10" stroke-linecap="round" stroke-linejoin="round"/>
<path d="M401.354 299.099L412.856 287.596V299.099" stroke="#263238" stroke-width="0.75" stroke-miterlimit="10" stroke-linecap="round" stroke-linejoin="round"/>
<path d="M414.689 299.099L426.192 287.596V299.099" stroke="#263238" stroke-width="0.75" stroke-miterlimit="10" stroke-linecap="round" stroke-linejoin="round"/>
<path d="M424.935 299.099L436.439 287.596V299.099" stroke="#263238" stroke-width="0.75" stroke-miterlimit="10" stroke-linecap="round" stroke-linejoin="round"/>
<path d="M442.906 299.099L454.41 287.596V299.099" stroke="#263238" stroke-width="0.75" stroke-miterlimit="10" stroke-linecap="round" stroke-linejoin="round"/>
<path d="M450.062 299.099L461.566 287.596V299.099" stroke="#263238" stroke-width="0.75" stroke-miterlimit="10" stroke-linecap="round" stroke-linejoin="round"/>
<path d="M460.878 299.099L472.381 287.596V299.099" stroke="#263238" stroke-width="0.75" stroke-miterlimit="10" stroke-linecap="round" stroke-linejoin="round"/>
<path d="M543.968 281.26H506.469V303.021H543.968V281.26Z" fill="#263238"/>
<path opacity="0.4" d="M543.968 281.26H506.469V303.021H543.968V281.26Z" fill="white"/>
<path opacity="0.4" d="M543.968 281.26H523.339V303.021H543.968V281.26Z" fill="white"/>
<path d="M504.077 281.26H466.578V303.021H504.077V281.26Z" fill="#263238"/>
<path opacity="0.4" d="M504.077 281.26H466.578V303.021H504.077V281.26Z" fill="white"/>
<path opacity="0.4" d="M504.077 281.26H483.448V303.021H504.077V281.26Z" fill="white"/>
<path d="M309.132 281.26H150.729V303.021H309.132V281.26Z" fill="#263238"/>
<path opacity="0.4" d="M309.132 281.26H150.729V303.021H309.132V281.26Z" fill="white"/>
<path opacity="0.4" d="M309.132 281.26H221.989V303.021H309.132V281.26Z" fill="white"/>
<path d="M553.052 567.405H140.141V636.641H553.052V567.405Z" fill="#263238"/>
<path opacity="0.3" d="M553.052 567.405H140.141V636.641H553.052V567.405Z" fill="white"/>
<path opacity="0.3" d="M553.05 567.405H226.265V636.641H553.05V567.405Z" fill="white"/>
<path opacity="0.2" d="M444.55 577.674H341.988V636.641H444.55V577.674Z" fill="black"/>
<path d="M332.02 584.517H313.288V632.223H332.02V584.517Z" fill="#22D3EE"/>
<path d="M307.315 584.517H288.583V632.223H307.315V584.517Z" fill="#22D3EE"/>
<path d="M282.611 584.517H263.879V632.223H282.611V584.517Z" fill="#22D3EE"/>
<path d="M257.907 584.517H239.175V632.223H257.907V584.517Z" fill="#22D3EE"/>
<path d="M545.227 584.517H526.495V632.223H545.227V584.517Z" fill="#22D3EE"/>
<path d="M520.521 584.517H501.789V632.223H520.521V584.517Z" fill="#22D3EE"/>
<path d="M495.817 584.517H477.085V632.223H495.817V584.517Z" fill="#22D3EE"/>
<path d="M471.111 584.517H452.38V632.223H471.111V584.517Z" fill="#22D3EE"/>
<path d="M220.781 584.517H205.699V632.223H220.781V584.517Z" fill="#22D3EE"/>
<path d="M200.89 584.517H185.808V632.223H200.89V584.517Z" fill="#22D3EE"/>
<path d="M180.998 584.517H165.917V632.223H180.998V584.517Z" fill="#22D3EE"/>
<path d="M161.107 584.517H146.025V632.223H161.107V584.517Z" fill="#22D3EE"/>
<g opacity="0.5">
<path d="M332.02 584.517H313.288V632.223H332.02V584.517Z" fill="white"/>
<path d="M307.315 584.517H288.583V632.223H307.315V584.517Z" fill="white"/>
<path d="M282.611 584.517H263.879V632.223H282.611V584.517Z" fill="white"/>
<path d="M257.907 584.517H239.175V632.223H257.907V584.517Z" fill="white"/>
</g>
<g opacity="0.5">
<path d="M545.227 584.517H526.495V632.223H545.227V584.517Z" fill="white"/>
<path d="M520.521 584.517H501.789V632.223H520.521V584.517Z" fill="white"/>
<path d="M495.817 584.517H477.085V632.223H495.817V584.517Z" fill="white"/>
<path d="M471.111 584.517H452.38V632.223H471.111V584.517Z" fill="white"/>
</g>
<g opacity="0.5">
<path d="M220.781 584.517H205.699V632.223H220.781V584.517Z" fill="white"/>
<path d="M200.89 584.517H185.808V632.223H200.89V584.517Z" fill="white"/>
<path d="M180.998 584.517H165.917V632.223H180.998V584.517Z" fill="white"/>
<path d="M161.107 584.517H146.025V632.223H161.107V584.517Z" fill="white"/>
</g>
<g opacity="0.5">
<path d="M438.623 584.517H419.983V632.223H438.623V584.517Z" fill="white"/>
<path d="M414.041 584.517H395.401V632.223H414.041V584.517Z" fill="white"/>
<path d="M389.459 584.517H341.988V632.223H389.459V584.517Z" fill="white"/>
</g>
<path opacity="0.1" d="M444.55 577.674L408.791 636.641H341.988V577.674H444.55Z" fill="black"/>
<path d="M223.618 303.021H135.178V565.516H223.618V303.021Z" fill="#22D3EE"/>
<path opacity="0.4" d="M223.618 303.021H135.178V565.516H223.618V303.021Z" fill="white"/>
<path opacity="0.1" d="M146.249 303.021V565.516" stroke="black" stroke-miterlimit="10"/>
<path opacity="0.1" d="M159.061 303.021V565.516" stroke="black" stroke-miterlimit="10"/>
<path opacity="0.1" d="M171.873 303.021V565.516" stroke="black" stroke-miterlimit="10"/>
<path opacity="0.1" d="M184.687 303.021V565.516" stroke="black" stroke-miterlimit="10"/>
<path opacity="0.1" d="M197.499 303.021V565.516" stroke="black" stroke-miterlimit="10"/>
<path opacity="0.1" d="M210.313 303.021V565.516" stroke="black" stroke-miterlimit="10"/>
<g opacity="0.1">
<path d="M175.948 303.015L135.171 368.774V336.936L156.2 303.015H175.948Z" fill="white"/>
<path d="M199.324 303.015L135.171 406.463V397.183L193.565 303.015H199.324Z" fill="white"/>
</g>
<g opacity="0.1">
<path d="M223.611 380.137V411.975L135.171 554.609V522.772L223.611 380.137Z" fill="white"/>
<path d="M223.611 440.4V449.695L151.8 565.51H146.025L223.611 440.4Z" fill="white"/>
</g>
<path d="M559.544 292.752H218.442V577.674H559.544V292.752Z" fill="#22D3EE"/>
<path d="M125.031 577.674H218.442V557.135H125.031V577.674Z" fill="#22D3EE"/>
<path d="M125.031 313.288H218.442V292.75H125.031V313.288Z" fill="#22D3EE"/>
<path d="M125.031 366.166H218.442V345.628H125.031V366.166Z" fill="#22D3EE"/>
<path d="M125.031 419.043H218.442V398.505H125.031V419.043Z" fill="#22D3EE"/>
<path d="M125.031 471.921H218.442V451.382H125.031V471.921Z" fill="#22D3EE"/>
<path d="M125.031 524.796H218.442V504.258H125.031V524.796Z" fill="#22D3EE"/>
<g opacity="0.6">
<path d="M125.031 577.674H218.442V557.135H125.031V577.674Z" fill="white"/>
<path d="M125.031 313.288H218.442V292.75H125.031V313.288Z" fill="white"/>
<path d="M125.031 366.166H218.442V345.627H125.031V366.166Z" fill="white"/>
<path d="M125.031 419.043H218.442V398.505H125.031V419.043Z" fill="white"/>
<path d="M125.031 471.921H218.442V451.382H125.031V471.921Z" fill="white"/>
<path d="M125.031 524.796H218.442V504.258H125.031V524.796Z" fill="white"/>
</g>
<path opacity="0.6" d="M559.544 292.752H218.442V577.674H559.544V292.752Z" fill="white"/>
<path opacity="0.4" d="M559.543 292.752H229.421V577.674H559.543V292.752Z" fill="white"/>
<path d="M447.048 292.752H341.988V577.674H447.048V292.752Z" fill="#22D3EE"/>
<path d="M548.315 313.282H455.474V557.142H548.315V313.282Z" fill="#22D3EE"/>
<path opacity="0.5" d="M548.315 313.282H455.474V557.142H548.315V313.282Z" fill="white"/>
<g opacity="0.1">
<path d="M469.442 313.288V557.137" stroke="black" stroke-miterlimit="10"/>
<path d="M485.668 313.288V557.137" stroke="black" stroke-miterlimit="10"/>
<path d="M501.894 313.288V557.137" stroke="black" stroke-miterlimit="10"/>
<path d="M518.12 313.288V557.137" stroke="black" stroke-miterlimit="10"/>
<path d="M534.344 313.288V557.137" stroke="black" stroke-miterlimit="10"/>
<path d="M548.316 313.288H455.472V557.135H548.316V313.288Z" stroke="black" stroke-miterlimit="10"/>
<path d="M548.316 345.629H455.472" stroke="black" stroke-miterlimit="10"/>
<path d="M455.472 366.166H548.316" stroke="black" stroke-miterlimit="10"/>
<path d="M548.316 398.505H455.472" stroke="black" stroke-miterlimit="10"/>
<path d="M455.472 419.043H548.316" stroke="black" stroke-miterlimit="10"/>
<path d="M548.316 451.382H455.472" stroke="black" stroke-miterlimit="10"/>
<path d="M455.472 471.921H548.316" stroke="black" stroke-miterlimit="10"/>
<path d="M548.316 504.26H455.472" stroke="black" stroke-miterlimit="10"/>
<path d="M455.472 524.796H548.316" stroke="black" stroke-miterlimit="10"/>
</g>
<g opacity="0.1">
<path d="M548.315 367.569V399.407L455.474 549.128V517.276L548.315 367.569Z" fill="white"/>
<path d="M548.315 427.816V437.111L473.894 557.142H468.119L548.315 427.816Z" fill="white"/>
</g>
<g opacity="0.1">
<path d="M548.315 492.139V523.976L527.748 557.142H508.016L548.315 492.139Z" fill="white"/>
<path d="M548.315 552.386V557.142H545.365L548.315 552.386Z" fill="white"/>
</g>
<path d="M333.56 313.282H240.719V557.142H333.56V313.282Z" fill="#22D3EE"/>
<path opacity="0.5" d="M333.56 313.282H240.719V557.142H333.56V313.282Z" fill="white"/>
<g opacity="0.1">
<path d="M254.692 313.288V557.137" stroke="black" stroke-miterlimit="10"/>
<path d="M270.918 313.288V557.137" stroke="black" stroke-miterlimit="10"/>
<path d="M287.142 313.288V557.137" stroke="black" stroke-miterlimit="10"/>
<path d="M303.368 313.288V557.137" stroke="black" stroke-miterlimit="10"/>
<path d="M319.594 313.288V557.137" stroke="black" stroke-miterlimit="10"/>
<path d="M333.564 313.288H240.72V557.135H333.564V313.288Z" stroke="black" stroke-miterlimit="10"/>
<path d="M333.564 345.629H240.72" stroke="black" stroke-miterlimit="10"/>
<path d="M240.72 366.166H333.564" stroke="black" stroke-miterlimit="10"/>
<path d="M333.564 398.505H240.72" stroke="black" stroke-miterlimit="10"/>
<path d="M240.72 419.043H333.564" stroke="black" stroke-miterlimit="10"/>
<path d="M333.564 451.382H240.72" stroke="black" stroke-miterlimit="10"/>
<path d="M240.72 471.921H333.564" stroke="black" stroke-miterlimit="10"/>
<path d="M333.564 504.26H240.72" stroke="black" stroke-miterlimit="10"/>
<path d="M240.72 524.796H333.564" stroke="black" stroke-miterlimit="10"/>
</g>
<g opacity="0.1">
<path d="M283.843 313.282L240.719 382.824V351.002L264.11 313.282H283.843Z" fill="white"/>
<path d="M307.234 313.282L240.719 420.544V411.249L301.46 313.282H307.234Z" fill="white"/>
</g>
<g opacity="0.1">
<path d="M333.56 387.132V418.954L247.883 557.142H240.719V536.838L333.56 387.132Z" fill="white"/>
<path d="M333.56 447.363V456.674L271.259 557.142H265.485L333.56 447.363Z" fill="white"/>
</g>
<path opacity="0.7" d="M447.048 292.752H341.988V577.674H447.048V292.752Z" fill="white"/>
<path d="M412.442 322H407.131H403.573V341.819H382.43V322H378.872H373.558H370V370H373.558H378.872H382.43V349.428H403.573V370H407.128H412.442H416V322H412.442Z" fill="#22D3EE"/>
<path d="M498.891 565.51H494.256H390.211H390.209H385.574H341.988V577.674H385.574V636.642H390.209H392.846H397.481V577.677H486.984V636.642H491.619H494.256H498.891V577.674V565.51Z" fill="#22D3EE"/>
<path opacity="0.3" d="M498.891 565.51V636.642H491.619V577.677H397.481V636.642H390.209V565.51H498.891Z" fill="white"/>
<path d="M374.378 398.505H353.204V557.14H374.378V398.505Z" fill="#22D3EE"/>
<path d="M405.277 398.505H384.102V557.14H405.277V398.505Z" fill="#22D3EE"/>
<path d="M436.177 398.505H415.003V557.14H436.177V398.505Z" fill="#22D3EE"/>
<g opacity="0.5">
<path d="M374.378 398.505H353.204V557.14H374.378V398.505Z" fill="white"/>
<path d="M405.277 398.505H384.102V557.14H405.277V398.505Z" fill="white"/>
<path d="M436.177 398.505H415.003V557.14H436.177V398.505Z" fill="white"/>
</g>
<path d="M356.252 268.04C356.224 268.04 356.198 268.043 356.17 268.043C355.938 268.046 355.71 268.06 355.481 268.074C355.225 268.058 354.97 268.04 354.706 268.04C348.275 268.04 343.532 272.575 343.532 278.711C343.532 284.845 348.274 289.38 354.706 289.38C354.969 289.38 355.223 289.361 355.481 289.346C355.71 289.358 355.937 289.372 356.17 289.376C356.198 289.376 356.224 289.38 356.252 289.38C362.682 289.38 367.424 284.876 367.424 278.711C367.424 272.545 362.682 268.04 356.252 268.04ZM352.844 285.195C352.472 285.013 352.122 284.799 351.794 284.558C351.753 284.527 351.715 284.493 351.675 284.46C351.382 284.235 351.106 283.989 350.854 283.719C350.783 283.642 350.721 283.556 350.655 283.475C350.448 283.231 350.247 282.98 350.076 282.706C349.985 282.56 349.914 282.399 349.833 282.245C349.708 282.01 349.579 281.777 349.48 281.525C349.386 281.283 349.325 281.022 349.257 280.766C349.205 280.573 349.135 280.387 349.098 280.187C349.012 279.719 348.964 279.231 348.963 278.726C348.963 278.72 348.961 278.715 348.961 278.709C348.961 278.703 348.963 278.698 348.963 278.692C348.964 278.187 349.012 277.699 349.098 277.231C349.135 277.031 349.205 276.847 349.257 276.652C349.325 276.396 349.387 276.135 349.48 275.893C349.579 275.641 349.708 275.408 349.832 275.173C349.912 275.019 349.983 274.858 350.074 274.712C350.247 274.438 350.446 274.187 350.653 273.944C350.721 273.864 350.781 273.777 350.854 273.7C351.106 273.432 351.38 273.186 351.674 272.961C351.714 272.928 351.753 272.894 351.794 272.863C352.122 272.623 352.472 272.408 352.844 272.226C352.856 272.22 352.869 272.212 352.881 272.206C353.666 271.826 354.539 271.579 355.478 271.489C359.255 271.847 361.995 274.741 361.995 278.709C361.995 282.676 359.255 285.571 355.478 285.929C354.539 285.839 353.666 285.594 352.88 285.212C352.869 285.209 352.856 285.202 352.844 285.195Z" fill="#22D3EE"/>
<path d="M374.039 274.057C374.039 274.054 374.04 274.051 374.04 274.048C374.04 273.865 374.062 273.688 374.097 273.517C374.113 273.444 374.142 273.378 374.165 273.308C374.196 273.211 374.225 273.112 374.269 273.019C374.31 272.933 374.364 272.853 374.417 272.772C374.46 272.704 374.502 272.636 374.554 272.572C374.625 272.484 374.71 272.4 374.798 272.318C374.849 272.271 374.9 272.224 374.956 272.179C375.062 272.094 375.181 272.016 375.309 271.94C375.363 271.909 375.419 271.878 375.475 271.849C375.621 271.773 375.777 271.702 375.949 271.641C376 271.622 376.055 271.605 376.109 271.587C376.301 271.523 376.503 271.466 376.724 271.42C376.764 271.412 376.81 271.406 376.852 271.398C377.097 271.352 377.355 271.312 377.638 271.287C379.282 271.395 381.067 271.9 382.721 272.871L382.981 272.226C383.244 272.34 383.5 272.484 383.758 272.616C383.926 272.704 384.099 272.774 384.265 272.871L385.48 269.879C383.672 268.693 381.064 268.04 378.573 268.04C378.498 268.04 378.436 268.052 378.362 268.054C378.175 268.065 377.991 268.08 377.803 268.089C377.545 268.075 377.284 268.04 377.028 268.04C371.337 268.04 368.67 270.886 368.67 274.234C368.67 281.941 380.999 279.007 380.999 283.482C380.999 284.893 379.836 285.969 377.164 286.143C376.611 286.103 376.06 286.017 375.519 285.898C375.484 285.89 375.447 285.882 375.41 285.875C374.892 285.757 374.389 285.604 373.904 285.427C373.852 285.407 373.799 285.387 373.745 285.367C373.274 285.186 372.823 284.981 372.404 284.752C372.359 284.728 372.317 284.7 372.272 284.675C371.848 284.436 371.449 284.178 371.102 283.898L370.98 284.173L370.75 284.689C370.318 284.445 369.911 284.182 369.558 283.898L368.224 286.892C369.942 288.373 373.174 289.381 376.404 289.381C376.609 289.381 376.781 289.352 376.978 289.344C377.301 289.364 377.625 289.381 377.95 289.381C383.641 289.381 386.338 286.536 386.338 283.216C386.338 275.598 374.039 278.473 374.039 274.057Z" fill="#22D3EE"/>
<path d="M398.701 268.336H397.155H390.166H388.62V289.083H390.166H392.474H394.02V283.097H397.157H398.703C404.156 283.097 407.534 280.281 407.534 275.717C407.533 271.123 404.154 268.336 398.701 268.336ZM394.018 279.836V271.597H396.978C400.356 271.597 402.105 273.109 402.105 275.717C402.105 278.325 400.356 279.836 396.978 279.836H394.018Z" fill="#22D3EE"/>
<path d="M447.85 268.336H446.304H444.056H442.51L433.174 289.083H434.719H437.145H438.691L440.736 284.281H449.563L451.639 289.083H453.184H455.67H457.215L447.85 268.336ZM442.041 281.26L443.948 276.805L445.154 273.987L448.29 281.26H442.041Z" fill="#22D3EE"/>
<path d="M474.558 285.824H473.012H463.711V268.336H463.709H462.164H459.857H458.312V289.083H459.857H473.012H474.558V285.824Z" fill="#22D3EE"/>
<path d="M339.438 268.336H337.131H335.585V276.903H326.402V268.336H324.856H322.548H321.002V289.083H322.548H324.856H326.402V280.191H335.585V289.083H337.129H339.438H340.983V268.336H339.438Z" fill="#22D3EE"/>
<path d="M413.698 268.336H411.39H409.844V289.083H411.39H413.698H415.243V268.336H413.698Z" fill="#22D3EE"/>
<path d="M435.783 271.597L435.785 268.336H434.239H418.179H416.633V271.597H418.179H423.51V289.083H425.056H427.362H428.908V271.597H434.239H435.783Z" fill="#22D3EE"/>
<g opacity="0.2">
<path d="M322.551 268.344H321.007V289.08H322.551V268.344Z" fill="black"/>
<path d="M337.126 268.344H335.582V276.898H337.126V268.344Z" fill="black"/>
<path d="M337.126 280.185H335.582V289.078H337.126V280.185Z" fill="black"/>
<path d="M356.256 271.417C354.712 271.417 353.276 271.849 352.134 272.621C353.091 272.003 354.234 271.617 355.484 271.494C359.252 271.849 362 274.736 362 278.704C362 282.672 359.252 285.575 355.484 285.93C353.616 285.76 352.01 284.958 350.852 283.738C352.134 285.158 354.064 286.007 356.256 286.007C360.425 286.007 363.544 282.95 363.544 278.704C363.544 274.472 360.425 271.417 356.256 271.417ZM345.078 278.704C345.078 272.868 349.37 268.468 355.345 268.066C355.129 268.051 354.929 268.035 354.712 268.035C348.274 268.035 343.534 272.575 343.534 278.704C343.534 284.849 348.274 289.373 354.712 289.373C354.975 289.373 355.206 289.358 355.469 289.343C349.432 289.003 345.078 284.601 345.078 278.704Z" fill="black"/>
<path d="M377.178 271.339C376.776 271.401 376.406 271.494 376.081 271.586C376.406 271.477 376.761 271.384 377.178 271.339Z" fill="black"/>
<path d="M369.766 286.886C371.326 288.214 374.09 289.171 376.977 289.341C376.776 289.356 376.606 289.372 376.406 289.372C373.179 289.372 369.936 288.368 368.222 286.886L369.566 283.891C369.905 284.184 370.322 284.446 370.755 284.694L369.766 286.886Z" fill="black"/>
<path d="M382.551 283.475C382.551 285.019 381.177 286.177 377.95 286.177C377.703 286.177 377.455 286.162 377.208 286.146C379.849 285.961 381.007 284.88 381.007 283.475C381.007 279.013 368.67 281.947 368.67 274.242C368.67 270.892 371.341 268.035 377.023 268.035C377.147 268.035 377.286 268.051 377.409 268.066C372.53 268.452 370.214 271.123 370.214 274.242C370.214 281.945 382.551 279.012 382.551 283.475Z" fill="black"/>
<path d="M382.981 272.24L382.721 272.866C381.068 271.894 379.277 271.4 377.641 271.292C377.919 271.261 378.212 271.245 378.536 271.245C379.952 271.247 381.493 271.585 382.981 272.24Z" fill="black"/>
<path d="M383.632 272.528C383.417 272.419 383.198 272.337 382.981 272.241L382.983 272.235C383.199 272.328 383.415 272.42 383.632 272.528Z" fill="black"/>
<path d="M398.516 271.602H396.972C400.353 271.602 402.098 273.115 402.098 275.724C402.098 278.334 400.353 279.831 396.972 279.831H398.516C401.897 279.831 403.657 278.334 403.657 275.724C403.657 273.114 401.897 271.602 398.516 271.602ZM388.619 268.344V289.08H390.163V268.344H388.619Z" fill="black"/>
<path d="M411.393 268.344H409.849V289.08H411.393V268.344Z" fill="black"/>
<path d="M418.171 268.344H416.627V271.602H418.171V268.344Z" fill="black"/>
<path d="M425.057 271.602H423.513V289.08H425.057V271.602Z" fill="black"/>
<path d="M442.504 268.344L433.178 289.08H434.722L444.048 268.344H442.504ZM445.916 272.189L442.041 281.267L445.16 273.995L448.294 281.267H449.838L445.916 272.189ZM451.106 284.277H449.562L451.646 289.078H453.19L451.106 284.277Z" fill="black"/>
<path d="M459.859 268.344H458.315V289.08H459.859V268.344Z" fill="black"/>
<g opacity="0.4">
<path d="M355.345 268.065C355.392 268.08 355.438 268.08 355.484 268.08C355.608 268.065 355.731 268.065 355.87 268.049C355.685 268.049 355.515 268.049 355.345 268.065Z" fill="black"/>
<path d="M377.471 268.065C377.579 268.08 377.687 268.096 377.795 268.096C378.058 268.08 378.305 268.034 378.567 268.034C378.197 268.035 377.826 268.049 377.471 268.065Z" fill="black"/>
</g>
</g>
<path d="M506.485 631.718C505.623 631.718 502.422 631.718 501.559 631.718C496.855 631.718 493.041 636.23 493.041 641.796C493.041 647.362 496.855 651.874 501.559 651.874C502.421 651.874 505.621 651.874 506.485 651.874C511.189 651.874 515.003 647.362 515.003 641.796C515.003 636.23 511.189 631.718 506.485 631.718Z" fill="#263238"/>
<path opacity="0.2" d="M515.003 641.796C515.003 647.362 511.189 651.874 506.484 651.874C501.78 651.874 497.966 647.362 497.966 641.796C497.966 636.23 501.78 631.718 506.484 631.718C511.189 631.718 515.003 636.23 515.003 641.796Z" fill="white"/>
<path opacity="0.2" d="M506.485 648.184C503.869 648.184 501.658 645.259 501.658 641.796C501.658 638.336 503.869 635.412 506.485 635.412C509.1 635.412 511.311 638.336 511.311 641.796C511.311 645.258 509.1 648.184 506.485 648.184Z" fill="black"/>
<path d="M577.556 631.718C576.695 631.718 573.494 631.718 572.631 631.718C567.926 631.718 564.113 636.23 564.113 641.796C564.113 647.362 567.926 651.874 572.631 651.874C573.493 651.874 576.693 651.874 577.556 651.874C582.261 651.874 586.075 647.362 586.075 641.796C586.075 636.23 582.261 631.718 577.556 631.718Z" fill="#263238"/>
<path opacity="0.2" d="M586.075 641.796C586.075 647.362 582.261 651.874 577.556 651.874C572.852 651.874 569.038 647.362 569.038 641.796C569.038 636.23 572.852 631.718 577.556 631.718C582.261 631.718 586.075 636.23 586.075 641.796Z" fill="white"/>
<path opacity="0.2" d="M577.556 648.184C574.941 648.184 572.73 645.259 572.73 641.796C572.73 638.336 574.941 635.412 577.556 635.412C580.172 635.412 582.383 638.336 582.383 641.796C582.383 645.258 580.172 648.184 577.556 648.184Z" fill="black"/>
<path d="M502.612 612.176V639.741C502.612 642.122 504.561 644.07 506.941 644.07H625.433C627.814 644.07 629.762 642.122 629.762 639.741V612.176H502.612Z" fill="#263238"/>
<path d="M546.639 631.718C545.778 631.718 542.577 631.718 541.714 631.718C537.009 631.718 533.196 636.23 533.196 641.796C533.196 647.362 537.009 651.874 541.714 651.874C542.576 651.874 545.776 651.874 546.639 651.874C551.344 651.874 555.158 647.362 555.158 641.796C555.159 636.23 551.345 631.718 546.639 631.718Z" fill="#263238"/>
<path opacity="0.2" d="M555.158 641.796C555.158 647.362 551.344 651.874 546.639 651.874C541.935 651.874 538.121 647.362 538.121 641.796C538.121 636.23 541.935 631.718 546.639 631.718C551.344 631.718 555.158 636.23 555.158 641.796Z" fill="white"/>
<path opacity="0.2" d="M546.639 648.184C544.024 648.184 541.813 645.259 541.813 641.796C541.813 638.336 544.024 635.412 546.639 635.412C549.255 635.412 551.466 638.336 551.466 641.796C551.467 645.258 549.256 648.184 546.639 648.184Z" fill="white"/>
<path d="M617.711 631.718C616.85 631.718 613.649 631.718 612.787 631.718C608.083 631.718 604.269 636.23 604.269 641.796C604.269 647.362 608.083 651.874 612.787 651.874C613.649 651.874 616.85 651.874 617.711 651.874C622.416 651.874 626.229 647.362 626.229 641.796C626.229 636.23 622.416 631.718 617.711 631.718Z" fill="#263238"/>
<path opacity="0.2" d="M626.229 641.796C626.229 647.362 622.416 651.874 617.711 651.874C613.007 651.874 609.193 647.362 609.193 641.796C609.193 636.23 613.007 631.718 617.711 631.718C622.416 631.718 626.229 636.23 626.229 641.796Z" fill="white"/>
<path opacity="0.2" d="M617.711 648.184C615.096 648.184 612.885 645.259 612.885 641.796C612.885 638.336 615.096 635.412 617.711 635.412C620.327 635.412 622.538 638.336 622.538 641.796C622.538 645.258 620.328 648.184 617.711 648.184Z" fill="white"/>
<path d="M567.335 576.113C567.335 577.688 566.054 578.985 564.479 578.985H534.309C532.734 578.985 531.437 577.688 531.437 576.113C531.437 574.538 532.734 573.256 534.309 573.256H564.479C566.054 573.256 567.335 574.538 567.335 576.113Z" fill="#22D3EE"/>
<path d="M567.335 576.113C567.335 577.688 566.054 578.985 564.479 578.985H546.676C545.101 578.985 543.805 577.688 543.805 576.113C543.805 574.538 545.101 573.256 546.676 573.256H564.479C566.054 573.256 567.335 574.538 567.335 576.113Z" fill="#263238"/>
<path d="M567.335 576.113C567.335 577.688 566.054 578.985 564.479 578.985H551.308C549.733 578.985 548.436 577.688 548.436 576.113C548.436 574.538 549.733 573.256 551.308 573.256H564.479C566.054 573.256 567.335 574.538 567.335 576.113Z" fill="#22D3EE"/>
<path d="M635.56 614.219V638.521C635.56 640.204 634.186 641.578 632.503 641.578L627.763 641.594C627.685 635.279 623.192 630.168 617.711 630.168C612.214 630.168 607.721 635.294 607.644 641.625L556.708 641.717C556.677 635.341 552.168 630.168 546.641 630.168C541.113 630.168 536.589 635.371 536.574 641.764L527.372 641.779C527.248 641.779 527.125 641.764 527.017 641.764C526.893 641.748 526.77 641.733 526.661 641.702H526.522L488.772 641.779C486.425 641.779 484.572 639.803 484.788 637.456C485.066 634.46 485.452 630.384 485.792 626.71C485.915 625.521 486.023 624.378 486.116 623.344C486.379 620.58 487.49 618.001 489.281 615.917V615.886C489.744 615.346 490.269 614.836 490.81 614.373L500.769 605.974L516.1 582.644C518.555 578.923 522.709 576.684 527.156 576.684H623.609C624.613 576.684 625.57 576.869 626.466 577.209C627.13 577.471 627.747 577.811 628.318 578.228C628.689 578.506 629.044 578.815 629.368 579.154C630.032 579.834 630.557 580.637 630.928 581.517C631.02 581.717 631.098 581.934 631.175 582.15C631.329 582.613 631.437 583.107 631.499 583.617L635.56 614.219Z" fill="#22D3EE"/>
<path opacity="0.7" d="M635.56 614.219V638.521C635.56 640.204 634.186 641.578 632.503 641.578L627.763 641.594C627.685 635.279 623.192 630.168 617.711 630.168C612.214 630.168 607.721 635.294 607.644 641.625L556.708 641.717C556.677 635.341 552.168 630.168 546.641 630.168C541.113 630.168 536.589 635.371 536.574 641.764L527.372 641.779C527.248 641.779 527.125 641.764 527.017 641.764C526.893 641.748 526.77 641.733 526.661 641.702H526.522L488.772 641.779C486.425 641.779 484.572 639.803 484.788 637.456C485.066 634.46 485.452 630.384 485.792 626.71C485.915 625.521 486.023 624.378 486.116 623.344C486.379 620.58 487.49 618.001 489.281 615.917V615.886C489.744 615.346 490.269 614.836 490.81 614.373L500.769 605.974L516.1 582.644C518.555 578.923 522.709 576.684 527.156 576.684H623.609C624.613 576.684 625.57 576.869 626.466 577.209C627.13 577.471 627.747 577.811 628.318 578.228C628.689 578.506 629.044 578.815 629.368 579.154C630.032 579.834 630.557 580.637 630.928 581.517C631.02 581.717 631.098 581.934 631.175 582.15C631.329 582.613 631.437 583.107 631.499 583.617L635.56 614.219Z" fill="white"/>
<path opacity="0.3" d="M635.564 614.219V638.521C635.564 640.204 634.19 641.578 632.507 641.578L627.767 641.594C627.69 635.279 623.197 630.168 617.716 630.168C612.219 630.168 607.726 635.294 607.649 641.625L556.712 641.733V641.717C556.682 635.341 552.173 630.168 546.646 630.168C541.118 630.168 536.594 635.371 536.579 641.764V641.779L527.392 641.795C527.268 641.795 527.145 641.794 527.021 641.764C526.851 641.764 526.682 641.733 526.527 641.702C524.613 641.285 523.238 639.494 523.408 637.456C523.655 634.63 524.026 630.817 524.366 627.312C524.489 625.922 524.628 624.563 524.736 623.344C525.076 619.854 526.759 616.643 529.445 614.373L531.978 612.227L539.389 605.974L551.818 582.351C552.513 581.023 553.47 579.88 554.613 578.985C556.45 577.518 558.75 576.684 561.175 576.684H623.614C624.617 576.684 625.575 576.869 626.47 577.209C627.134 577.471 627.752 577.811 628.323 578.228C628.694 578.506 629.049 578.815 629.373 579.154C630.037 579.834 630.562 580.637 630.932 581.517C631.025 581.717 631.102 581.934 631.18 582.15C631.334 582.613 631.457 583.107 631.519 583.617L635.194 611.409L635.395 612.953L635.564 614.219Z" fill="white"/>
<path d="M502.612 605.058H537.596L547.993 585.92H515.333L502.612 605.058Z" fill="#263238"/>
<path opacity="0.6" d="M488.997 626.813C488.997 626.813 487.164 627.565 485.795 626.717C485.911 625.521 486.027 624.383 486.122 623.341C486.372 620.581 487.492 617.997 489.286 615.912C489.576 616.414 489.981 617.263 490.135 618.286C490.405 619.944 488.997 626.813 488.997 626.813Z" fill="white"/>
<path opacity="0.2" d="M491.035 618.798H518.642C518.642 618.798 515.207 625.796 515.716 627.831C515.716 627.831 509.355 630.885 501.34 630.885C493.325 630.885 490.171 627.122 490.171 627.122C490.171 627.122 491.29 619.942 491.035 618.798Z" fill="black"/>
<path d="M521.185 635.572C521.185 636.917 520.359 638.007 519.34 638.007C518.321 638.007 517.495 636.917 517.495 635.572C517.495 634.227 518.321 633.137 519.34 633.137C520.359 633.137 521.185 634.227 521.185 635.572Z" fill="white"/>
<path d="M487.983 637.845C489.002 637.845 489.828 636.755 489.828 635.41C489.828 634.065 489.002 632.975 487.983 632.975C486.964 632.975 486.138 634.065 486.138 635.41C486.138 636.755 486.964 637.845 487.983 637.845Z" fill="white"/>
<path d="M513.612 638.007C514.155 638.007 514.595 637.427 514.595 636.709C514.595 635.992 514.155 635.41 513.612 635.41C513.068 635.41 512.628 635.992 512.628 636.709C512.628 637.427 513.068 638.007 513.612 638.007Z" fill="white"/>
<path d="M491.869 638.007C492.413 638.007 492.853 637.427 492.853 636.709C492.853 635.992 492.413 635.41 491.869 635.41C491.326 635.41 490.885 635.992 490.885 636.709C490.885 637.427 491.326 638.007 491.869 638.007Z" fill="white"/>
<path d="M541.91 605.971L552.82 585.92H567.13V605.058C567.13 605.058 555.448 604.932 552.82 610.274H541.91V605.971Z" fill="#263238"/>
<path d="M586.575 585.92H569.179V605.058H586.575V585.92Z" fill="#263238"/>
<path d="M525.886 611.521H525.244L530.231 607.498H530.836L528.829 611.521H528.196L528.679 610.59H527.026L525.886 611.521ZM528.982 610.003L529.89 608.245L527.739 610.003H528.982Z" fill="#22D3EE"/>
<path d="M521.2 611.521L524.701 607.498H525.206L524.179 610.164L527.809 607.498H528.314L524.82 611.521H524.234L526.521 608.889L523.547 611.061H523.274L524.105 608.855L521.784 611.521H521.2Z" fill="#22D3EE"/>
<path d="M519.778 609.429C519.669 609.262 519.763 608.958 520.121 608.544C520.675 607.907 521.455 607.498 522.249 607.498H523.797L520.302 611.521H518.659C517.808 611.521 517.714 611.12 518.313 610.43C518.769 609.906 519.303 609.568 519.778 609.429ZM519.205 610.936H520.197L521.205 609.775H520.214C519.75 609.775 519.346 609.953 518.997 610.356C518.648 610.757 518.744 610.936 519.205 610.936ZM521.804 608.084C521.379 608.084 520.978 608.268 520.654 608.642C520.334 609.009 520.416 609.193 520.841 609.193H521.71L522.673 608.084H521.804Z" fill="#22D3EE"/>
<path d="M515.231 611.58C514.33 611.58 514.34 610.942 515.358 609.769L517.33 607.498H517.935L515.986 609.739C515.267 610.567 515.261 610.922 515.795 610.922C516.329 610.922 516.944 610.567 517.663 609.739L519.612 607.498H520.226L518.254 609.769C517.235 610.942 516.138 611.58 515.231 611.58Z" fill="#22D3EE"/>
<path d="M512.971 611.521H510.629L511.178 610.888H512.908L515.853 607.498H516.468L512.971 611.521Z" fill="#22D3EE"/>
<path d="M507.641 611.521H506.999L511.986 607.498H512.589L510.582 611.521H509.949L510.433 610.59H508.779L507.641 611.521ZM510.735 610.003L511.643 608.245L509.492 610.003H510.735Z" fill="#22D3EE"/>
<path d="M507.74 607.498L505.373 610.223L509.563 607.498H510.068L506.574 611.521H505.964L508.331 608.796L504.141 611.521H503.634L507.13 607.498H507.74Z" fill="#22D3EE"/>
<path d="M501.161 611.58C500.617 611.58 500.359 611.344 500.432 610.907L501.227 610.447C501.189 610.769 501.352 610.924 501.697 610.924C502.382 610.924 503.386 610.339 504.105 609.511C504.825 608.683 504.837 608.098 504.152 608.098C503.807 608.098 503.375 608.253 502.859 608.569L502.858 608.115C503.545 607.678 504.21 607.444 504.749 607.444C505.765 607.444 505.767 608.311 504.723 609.513C503.682 610.711 502.172 611.58 501.161 611.58Z" fill="#22D3EE"/>
<path d="M499.234 610.894L500.197 609.786H498.601L499.135 609.17H500.732L501.639 608.124H499.839L500.384 607.498H502.797L499.302 611.521H496.824L497.367 610.894H499.234Z" fill="#22D3EE"/>
<path d="M612.886 587.569H608.733V605.058H612.886V587.569Z" fill="#22D3EE"/>
<path d="M619.553 598.39V594.236H602.064V598.39H619.553Z" fill="#22D3EE"/>
<path d="M635.395 612.953H580.691C573.604 612.953 566.733 614.991 560.804 618.866L557.299 621.136H529.631V619.592H556.851L559.955 617.569C566.146 613.539 573.31 611.409 580.691 611.409H635.194L635.395 612.953Z" fill="#22D3EE"/>
<path d="M516.734 627.321C517.152 624.477 519.431 618.812 521.568 616.89C523.688 614.983 531.363 611.727 531.977 612.227C535.252 614.9 526.888 625.783 524.356 627.315C521.821 628.848 516.471 629.101 516.734 627.321Z" fill="white"/>
</svg>
