<svg width="1280" height="1280" viewBox="0 0 1280 1280" fill="none" xmlns="http://www.w3.org/2000/svg">
<path d="M581.25 32.1875H646.875L679.375 34.0625L706.875 36.5625L736.25 40.3125L767.5 45.3125L798.75 51.5625L827.5 58.4375L858.75 67.1875L882.5 74.6875L908.75 84.0625L929.375 92.1875L951.25 101.562L968.75 109.688L995 122.812L1009.38 130.938L1020.62 137.188L1035 145.938L1045.62 152.812L1055 159.062V160.312L1031.88 165.312L1012.5 170.938L994.375 177.188L975 185.312L954.375 195.312L940 203.438L928.75 209.688L914.375 218.438L898.75 228.438L895 230.938L894.375 231.562L978.125 222.188L980 222.812L951.25 239.062L936.875 247.812L926.25 254.688L913.125 263.438L900.625 272.188L888.75 280.938L880 287.812L870 295.938L863.125 301.562L854.375 309.062L846.875 315.938L841.875 320.312L837.5 324.688L832.5 329.062L816.25 345.312L811.875 350.312L803.125 359.688L797.5 366.562L791.875 372.812L785 381.562L776.875 391.562L768.125 403.438L759.375 415.938L748.75 432.188L738.125 449.688L729.375 465.312L720 483.438L711.25 501.562L700.625 526.562L691.875 550.312V552.188L701.25 547.188L715.625 540.312L744.375 525.938L745.625 526.562L735.625 546.562L725.625 569.062L718.75 586.562L847.5 585.938L838.75 570.312L833.125 558.438L827.5 543.438L824.375 532.188V530.312L831.25 532.188L866.25 544.688L888.75 552.812L886.875 539.688L885 522.812L884.375 508.438V500.938L885.625 479.688L888.125 460.938L891.875 442.188L896.875 423.438L903.75 402.812L910.625 385.938L916.25 373.438L926.875 352.188L935.625 337.188L942.5 325.938L950 314.688L957.5 304.062L967.5 290.938L972.5 284.688L978.125 277.812L986.25 268.438L993.75 260.312L1003.12 250.312L1008.75 244.688L1013.75 240.312L1023.12 231.562L1030 225.938L1039.38 218.438L1048.75 211.562L1051.25 212.188L1059.38 219.688L1074.38 233.438L1078.12 236.562L1081.25 221.562L1085 209.062L1090 197.812L1094.38 190.312H1096.88L1105 197.188L1111.88 202.812L1120.62 210.938L1125.62 215.312L1131.25 220.938L1136.25 225.312L1145.62 234.688L1150 239.688L1155 244.688L1159.38 249.688L1165 255.938L1170.62 262.812L1179.38 273.438L1186.88 283.438L1195 294.688L1207.5 313.438L1215.62 326.562L1225 343.438L1233.12 359.062L1242.5 379.688L1251.25 402.188L1258.75 424.688L1265 446.562L1270 469.062L1273.75 489.688L1276.88 514.062L1278.75 536.562L1279.38 550.312V567.188L1278.75 567.812L958.125 568.438L968.75 577.188L975 582.188L978.75 585.312V586.562H1279.38L1280 587.188V747.188H0V586.562L350 585.938L345.625 581.562L340 574.688L333.75 566.562L326.25 555.312L320 544.062L315 534.062L309.375 521.562L310.625 520.938L351.25 533.438L385.625 544.062L384.375 529.062V487.188L386.25 465.938L390 442.812L395.625 420.312L403.125 397.812L410.625 380.312L420 361.562L430 344.688L442.5 325.938L451.25 314.062L460 302.812L466.875 294.688L472.5 287.812L478.75 280.938L483.125 275.938L490 268.438L499.375 258.438L524.375 233.438L526.875 234.688L534.375 241.562L540 247.188L545 251.562L552.5 259.062L553.75 259.688V250.938L556.25 240.312L560.625 230.312L565.625 222.188L571.25 214.688L576.875 207.812L583.125 200.938L587.5 195.938L591.875 191.562L595 187.812H573.125L550 189.688L531.25 192.812L515.625 196.562L499.375 201.562L479.375 209.688L461.25 218.438L446.875 226.562L434.375 234.062L423.75 240.938L416.25 245.938L403.75 254.688L401.875 255.938L408.75 255.312L436.25 250.938L446.875 249.688H459.375L461.25 250.938L450 257.188L433.75 266.562L423.125 273.438L415.625 278.438L403.125 287.188L390 297.188L381.25 304.062L372.5 311.562L365.625 317.188L355.625 326.562L350.625 330.938L342.5 339.062L337.5 343.438L327.5 354.062L321.25 360.312L316.875 365.312L309.375 373.438L303.75 380.312L295.625 389.688L288.75 398.438L280.625 408.438L271.875 420.312L263.75 431.562L250 452.188L243.125 462.812L235.625 475.312L228.125 488.438L219.375 504.688L209.375 525.312L201.875 543.438L195.625 560.938L193.75 567.188L193.125 567.812H0V547.188L1.25 522.812L3.75 495.938L7.5 469.062L11.875 445.938L18.125 419.688L23.75 400.312L31.25 377.812L40 355.312L49.375 334.688L59.375 314.688L67.5 300.312L76.25 285.938L85 272.812L92.5 262.188L98.125 254.688L106.875 243.438L113.75 235.312L119.375 228.438L128.75 218.438L133.125 213.438L153.125 193.438L158.125 189.062L165.625 182.188L172.5 176.562L180.625 169.688L199.375 155.312L210.625 147.188L232.5 132.812L248.125 123.438L261.25 115.938L275.625 108.438L285 103.438L302.5 95.3125L322.5 86.5625L345 77.8125L368.125 69.6875L396.25 60.9375L422.5 54.0625L450.625 47.8125L477.5 42.8125L506.875 38.4375L535 35.3125L568.125 32.8125L581.25 32.1875ZM833.75 171.562L796.25 174.688L768.75 178.438L749.375 182.188L733.125 186.562L718.125 191.562L701.25 199.062L688.125 206.562L675.625 215.312L667.5 222.188L662.5 226.562L656.25 232.188L648.125 240.312L643.75 245.312L645.625 245.938L659.375 241.562L673.75 238.438L688.75 236.562L708.125 235.312H712.5L698.125 243.438L680 254.062L665 263.438L640.625 279.688L631.875 285.938L620 294.688L609.375 302.812L599.375 310.938L592.5 316.562L583.75 324.062L576.25 330.938L571.25 335.312L561.25 344.688L545 360.938L540.625 365.938L533.125 374.062L527.5 380.938L519.375 390.312L513.125 398.438L503.75 410.938L493.75 425.312L486.25 437.188L478.125 450.938L470 465.938L461.875 482.188L453.75 500.938L447.5 517.812L441.25 536.562L438.125 547.812L438.75 549.688L463.125 537.188L475 530.938L483.75 526.562L472.5 550.312L462.5 573.438L457.5 586.562H594.375L590.625 581.562L581.875 569.062L573.75 556.562L565.625 542.812L556.875 527.188L553.75 521.562L565 524.062L635.625 541.562L637.5 540.938V486.562L638.75 465.938L641.25 444.062L644.375 425.938L648.125 409.062L653.75 390.312L660 373.438L666.875 358.438L673.75 344.688L683.75 327.812L691.25 316.562L698.75 305.938L705 297.812L711.875 289.062L718.75 280.938L726.25 272.188L733.125 264.688L737.5 259.688L741.875 255.312L746.25 250.312L775.625 220.938L778.125 222.188L786.875 231.562L791.25 236.562L796.875 242.812L800 246.562L801.25 245.312L807.5 227.812L815.625 209.062L822.5 196.562L830 185.938L835.625 179.688L840 174.688L842.5 171.562H833.75ZM20 609.062L16.25 610.938L12.5 615.312V730.312L15.625 734.062L18.125 735.312H55.625L60 732.188L61.875 729.688V614.688L58.75 610.938L54.375 609.062H20ZM76.25 609.062L71.25 611.562L68.75 614.688L68.125 615.938V729.688L70.625 733.438L74.375 735.312H111.25L115 732.812L118.125 729.062V615.312L114.375 610.938L110.625 609.062H76.25ZM133.75 609.062L129.375 610.938L125.625 615.312V730.312L128.75 734.062L131.25 735.312H168.75L173.75 731.562L175.625 729.062V615.938L173.125 612.188L169.375 609.688L167.5 609.062H133.75ZM190 609.062L185 611.562L181.875 615.312V729.688L184.375 733.438L187.5 735.312H225L230 731.562L231.875 729.062V615.938L229.375 612.188L225.625 609.688L223.75 609.062H190ZM245 609.062L240 611.562L236.875 615.312V729.688L239.375 733.438L242.5 735.312H280L285 731.562L286.875 729.062V615.938L284.375 612.188L280.625 609.688L278.75 609.062H245ZM300.625 609.062L295.625 611.562L292.5 615.938V729.062L295 733.438L298.75 735.312H336.25L342.5 729.688V615.312L340 611.562L335 609.062H300.625ZM357.5 609.062L352.5 611.562L349.375 615.312V729.688L351.875 733.438L355 735.312H392.5L397.5 731.562L399.375 729.062V625.938L386.875 617.188L376.875 609.688L375.625 609.062H357.5ZM471.25 609.062L466.25 611.562L463.125 615.312V729.688L465.625 733.438L468.75 735.312H506.25L511.25 731.562L513.125 729.062V615.938L510.625 612.188L506.875 609.688L505 609.062H471.25ZM530 609.062L526.25 610.938L522.5 615.312V730.312L525.625 734.062L528.125 735.312H565.625L570.625 731.562L572.5 728.438V615.938L570 612.188L566.25 609.688L564.375 609.062H530ZM587.5 609.062L582.5 611.562L579.375 615.938V729.062L581.875 733.438L585.625 735.312H623.125L629.375 729.688V622.188L623.125 616.562L618.125 612.188L614.375 609.062H587.5ZM711.25 609.062L709.375 613.438L703.75 637.188L699.375 661.562V664.062L693.75 662.188V728.438L695.625 732.188L698.75 734.688L700 735.312H737.5L743.75 729.688V615.312L741.25 611.562L736.25 609.062H711.25ZM758.75 609.062L753.75 611.562L750.625 615.938V729.062L753.125 732.812L755 734.688L756.875 735.312H794.375L800.625 729.688V615.312L798.125 611.562L793.125 609.062H758.75ZM815 609.062L810 611.562L806.875 615.312V729.688L809.375 733.438L812.5 735.312H850L855 731.562L856.875 729.062V615.938L854.375 612.188L850.625 609.688L848.75 609.062H815ZM960 609.062L957.5 612.188L950 626.562L945 639.062L941.25 651.562L940 658.438V670.312L933.75 668.438L925 664.062L921.25 661.562H920V729.062L922.5 732.812L924.375 734.688L926.25 735.312H963.75L970 729.688V615.312L967.5 611.562L962.5 609.062H960ZM985 609.062L980 611.562L976.875 615.312V729.688L979.375 733.438L982.5 735.312H1020L1025 731.562L1026.88 729.062V615.938L1024.38 612.188L1020.62 609.688L1018.75 609.062H985ZM1042.5 609.062L1038.75 610.938L1035.62 614.062L1035 615.312V730.312L1038.12 734.062L1040.62 735.312H1078.12L1082.5 732.188L1084.38 729.688V614.688L1081.25 610.938L1076.88 609.062H1042.5ZM1100 609.062L1095 611.562L1092.5 614.688L1091.88 615.938V729.062L1094.38 733.438L1098.12 735.312H1135L1138.75 732.812L1141.88 729.062V615.312L1138.12 610.938L1134.38 609.062H1100ZM1159.38 609.062L1154.38 611.562L1151.25 615.312V729.688L1153.75 733.438L1156.88 735.312H1194.38L1199.38 731.562L1201.25 729.062V615.938L1198.75 612.188L1195 609.688L1193.12 609.062H1159.38ZM1217.5 609.062L1212.5 611.562L1209.38 616.562V728.438L1211.25 732.188L1214.38 734.688L1215.62 735.312H1253.12L1259.38 729.688V614.688L1256.88 611.562L1251.88 609.062H1217.5ZM449.375 610.312L445.625 624.062L442.5 640.312L441.25 651.562L426.875 643.438L406.875 630.938H405.625V729.062L408.125 732.812L411.875 735.312H449.375L455.625 729.688V615.312L453.125 611.562L451.25 610.312H449.375ZM866.875 612.812L865 615.312V730.312L868.125 734.062L870.625 735.312H908.125L912.5 732.188L914.375 729.688V657.188L906.875 650.938L900.625 645.938L893.75 639.688L888.75 635.312L876.875 623.438L872.5 618.438L867.5 612.812H866.875ZM636.875 628.438V729.688L639.375 733.438L642.5 735.312H680L685 731.562L686.875 729.062V658.438L673.125 650.938L658.75 642.812L640 630.312L636.875 628.438Z" fill="#3151B6"/>
<path d="M1045.62 926.562L1046.88 927.812L1055.62 951.562V952.812L1046.88 957.812V990.312L1048.75 992.188L1103.12 992.812L1100.62 989.062L1095.62 985.312L1090 983.438V971.562L1095 968.438L1103.75 965.312L1111.88 964.062H1125.62L1134.38 965.312L1140.62 967.812L1143.75 970.312L1145 972.812V977.188L1142.5 983.438L1136.88 990.312L1134.38 991.562V992.812L1179.38 992.188L1183.75 990.938L1184.38 990.312L1183.75 984.688L1172.5 958.438L1170.62 953.438V949.062L1173.75 945.312L1202.5 926.562L1203.75 927.188L1212.5 950.938L1211.88 953.438L1205 957.188H1203.75L1204.38 991.562L1206.25 992.188H1245L1250.62 990.938L1251.25 990.312V986.562L1238.12 955.938L1237.5 954.062V949.062L1241.25 944.688L1256.88 934.688L1266.25 928.438L1270 926.562L1278.12 947.812L1279.38 950.938L1278.75 953.438L1270.62 957.812L1270 1008.44L1266.88 1014.69L1261.25 1019.69L1256.25 1022.19L1251.88 1023.44H1218.12L1210.62 1020.94L1205.62 1017.19L1201.88 1012.81L1200.62 1010.94L1198.12 1015.94L1193.75 1020.31L1188.75 1022.81L1186.25 1023.44H1133.75L1126.88 1020.94L1121.25 1017.19L1117.5 1012.81L1116.25 1010.94L1112.5 1016.56L1106.25 1020.94L1098.75 1023.44H1061.25L1053.75 1020.94L1047.5 1016.56L1043.75 1010.94L1040 1017.19L1035.62 1020.94L1029.38 1023.44H986.875L985.625 1032.81L981.875 1044.06L977.5 1052.81L973.125 1058.44L968.125 1062.81L965 1064.06H955L942.5 1061.56L908.125 1052.81V1048.44L925.625 1043.44L946.25 1036.56L957.5 1031.56L965 1027.19L968.125 1024.06L946.25 1023.44L940 1020.94L935 1017.19L932.5 1013.44L931.875 1011.56V982.812L933.75 977.188L939.375 970.938L946.875 967.812L950 967.188H964.375L973.125 969.688L980 974.062L985 979.688L988.125 985.938L989.375 992.812L1021.88 992.188L1026.88 990.938L1027.5 990.312V986.562L1019.38 967.812L1013.75 954.062V948.438L1016.88 945.312L1026.25 939.062L1040.62 929.688L1045.62 926.562ZM949.375 980.312L945 982.188L943.125 985.312L943.75 989.062L946.25 991.562L951.25 992.812H970.625L969.375 990.312L961.875 984.688L954.375 980.938L949.375 980.312Z" fill="#3151B6"/>
<path d="M661.875 926.562L663.125 927.188L671.875 950.938L671.25 953.438L664.375 957.188H663.125V1006.56L660.625 1013.44L658.125 1016.56L651.875 1020.94L644.375 1023.44H613.125L605.625 1020.94L600.625 1017.19L596.875 1012.81L596.25 1010.31H595L594.375 1012.81L590 1017.81L585.625 1020.94L578.125 1023.44H540.625L533.125 1020.94L528.125 1017.19L524.375 1012.81L523.125 1010.94L520.625 1015.94L516.25 1020.31L511.25 1022.81L508.75 1023.44H463.125L455.625 1020.94L450.625 1017.19L446.25 1012.19V1010.31H445L443.75 1014.06L439.375 1018.44L433.75 1021.56L428.125 1023.44L405 1024.06V1029.06L401.875 1040.94L396.25 1052.81L391.875 1058.44L388.75 1061.56L385 1064.06L382.5 1064.69H375L364.375 1062.81L326.875 1053.44V1048.44L331.875 1046.56L348.75 1041.56L366.875 1035.31L381.25 1028.44L385 1025.31H386.25V1024.06H365.625L358.75 1021.56L353.75 1017.81L350.625 1012.81L350 1010.31V984.688L351.25 979.062L354.375 974.062L359.375 969.688L366.25 967.188L370 966.562H381.875L391.25 969.062L398.125 973.438L403.125 978.438L406.875 985.938L408.125 991.562L408.75 992.188H430L433.75 990.938L434.375 990.312L435 980.938H448.125L448.75 990.312L449.375 991.562L451.25 992.188H498.75L506.25 990.938L508.75 988.438V984.688L505.625 981.562L500.625 979.688L493.125 978.438L476.875 977.812V949.688L479.375 945.938L485.625 942.812L530.625 931.562H531.875V952.812L520.625 955.938L503.125 960.312L502.5 960.938L513.75 964.688L520.625 969.688L524.375 974.062L526.875 980.938L528.125 990.938L530.625 992.188H580.625L584.375 991.562L585 980.938H598.125L598.75 989.688L599.375 991.562L601.25 992.188H638.125L643.125 990.938L643.75 990.312V985.938L631.875 958.438L630 953.438V949.062L633.125 945.312L645.625 937.188L661.875 926.562ZM366.875 980.938L363.125 982.812L361.875 985.312L362.5 989.062L365.625 991.562L368.125 992.188H388.125V990.938L380.625 985.312L373.75 981.562L371.25 980.938H366.875Z" fill="#3151B6"/>
<path d="M1115 1104.06H1213.12L1226.25 1105.94L1238.12 1109.06L1250 1114.06L1258.75 1119.69L1265 1125.31L1269.38 1131.56L1271.25 1137.19V1147.81L1268.75 1154.06L1265 1159.06L1259.38 1164.06L1249.38 1169.06L1240 1172.19V1172.81L1249.38 1175.31L1257.5 1178.44L1265.62 1182.81L1272.5 1188.44L1277.5 1195.31L1279.38 1200.94V1210.31L1276.88 1217.81L1271.88 1224.69L1266.25 1229.69L1256.88 1235.31L1245.62 1240.31L1231.25 1244.06L1215 1245.94H1115V1104.06ZM1145.62 1121.56V1164.69H1210L1219.38 1162.81L1227.5 1159.69L1234.38 1155.31L1238.75 1150.31L1240.62 1145.31V1140.31L1237.5 1134.06L1233.12 1129.69L1225.62 1125.31L1215.62 1122.19L1211.25 1121.56H1145.62ZM1146.25 1181.56L1145.62 1182.19V1228.44H1214.38L1225 1226.56L1235 1222.81L1241.88 1217.81L1246.25 1212.81L1248.12 1207.19V1202.81L1245.62 1196.56L1243.12 1193.44L1236.25 1188.44L1228.12 1184.69L1216.88 1182.19L1207.5 1181.56H1146.25Z" fill="#3151B6"/>
<path d="M820.625 1104.06H851.875V1164.69H971.875V1104.06H1003.12V1245.94H971.875V1181.56H851.875V1245.94H820.625V1104.06Z" fill="#3151B6"/>
<path d="M955 796.562L956.25 797.188L963.125 832.812L965 836.562L967.5 837.812L1005.62 838.438L1003.12 834.688L998.75 830.938L993.75 829.688V817.188L996.875 814.688L1004.38 811.562L1013.75 809.688H1025.62L1035.62 811.562L1041.88 815.312L1043.12 817.188L1043.75 821.562L1041.88 827.812L1038.12 833.438L1034.38 837.812L1076.88 838.438V831.562L1081.25 822.812L1089.38 813.438L1095.62 808.438L1100.62 806.562H1109.38L1115 809.062L1120 812.812L1125 818.438L1130 827.188L1133.12 834.688L1133.75 839.062L1124.38 855.312L1118.75 864.688L1116.88 867.188L1101.25 864.062L1084.38 861.562L1083.12 864.688L1078.12 867.812L1075 869.062L1070.62 869.688H1036.88L1029.38 867.812L1023.12 864.062L1019.38 859.688L1017.5 856.562L1015 860.938L1010.62 865.312L1004.38 868.438L998.125 869.688H967.5L958.75 867.812L952.5 864.062L948.125 858.438L945 850.938V848.438L941.875 851.562L933.75 863.438L931.875 865.312H926.25L919.375 862.812L913.75 857.812L911.25 852.812L910.625 850.312V831.562L912.5 826.562L916.875 822.188L923.75 819.062L935 816.562H938.125L936.875 808.438L943.125 804.062L955 796.562ZM936.25 825.312L930.625 827.188L926.875 830.312L926.25 832.188V837.812L928.125 840.938L931.875 842.812L934.375 843.438H943.125L943.75 842.188L940.625 827.188L938.75 825.312H936.25ZM1094.38 826.562L1091.25 829.688V834.688L1093.75 837.188L1097.5 838.438H1115.62L1114.38 835.938L1108.75 830.938L1102.5 827.188L1100.62 826.562H1094.38Z" fill="#3151B6"/>
<path d="M344.375 1106.56H365.625L380.625 1108.44L393.125 1111.56L403.125 1115.31L413.75 1120.94L420 1125.94L425 1131.56L425.625 1134.06L414.375 1137.19L399.375 1140.94H398.125L394.375 1135.94L390 1132.19L381.25 1127.81L373.125 1125.31L365.625 1124.06H345L335 1125.94L325 1129.69L319.375 1133.44L315.625 1137.81L315 1139.69V1145.31L317.5 1150.31L323.75 1154.69L333.75 1158.44L350.625 1162.81L381.25 1169.69L396.875 1174.06L409.375 1179.06L417.5 1183.44L423.75 1188.44L428.75 1194.06L431.875 1200.31L433.125 1205.31V1212.81L430.625 1220.94L426.25 1227.19L420 1232.81L411.25 1237.81L402.5 1241.56L390 1245.31L374.375 1247.81L366.875 1248.44H346.25L330.625 1246.56L318.125 1243.44L306.25 1239.06L295.625 1233.44L288.125 1227.81L281.25 1220.94L275.625 1212.19L277.5 1210.94L303.75 1204.69L308.75 1211.56L313.125 1216.56L320.625 1222.19L330 1226.56L340.625 1229.69L348.125 1230.94H367.5L379.375 1229.06L388.75 1225.94L396.25 1221.56L400.625 1216.56L402.5 1210.94L401.875 1204.69L398.125 1199.06L391.875 1194.69L381.875 1190.31L366.25 1185.94L326.875 1177.19L312.5 1172.81L299.375 1166.56L293.75 1162.19L288.125 1156.56L285 1150.31L284.375 1147.81V1137.81L286.875 1131.56L291.875 1125.31L299.375 1119.69L310 1114.06L321.25 1110.31L333.125 1107.81L344.375 1106.56Z" fill="#3151B6"/>
<path d="M30 926.562H30.625L31.25 990.938L33.125 992.188H68.75L72.5 990.938L73.125 989.688L73.75 980.938H86.25L86.875 981.562L87.5 990.312L89.375 992.188H143.125L160.625 990.938L168.125 989.062L171.875 987.812L172.5 985.312L169.375 984.688L153.125 977.812L144.375 975.312L136.875 974.688L131.25 975.938L129.375 977.188V980.938V983.438L123.125 986.562L118.75 980.938L117.5 977.812V972.812L120.625 967.188L127.5 959.688L133.125 955.938L138.125 954.062H146.25L155 956.562L172.5 962.812L183.75 965.312L198.75 966.562L209.375 967.188L207.5 972.812L202.5 984.688L201.875 985.312L195.625 986.562L188.125 990.312L183.75 994.688L177.5 1004.69L172.5 1013.44L168.75 1017.81L161.25 1021.56L150.625 1023.44H101.875L94.375 1020.94L87.5 1015.94L84.375 1010.94L80 1016.56L75 1020.31L69.375 1022.81L66.875 1023.44H21.25L13.125 1020.94L6.875 1016.56L1.875 1010.94L0 1005.31V944.688L17.5 934.062L30 926.562Z" fill="#3151B6"/>
<path d="M808.125 793.438L813.75 794.062L826.25 802.812L835 809.062L841.875 814.688L851.875 824.688L857.5 833.438L858.75 839.062L848.125 856.562L841.875 867.188H836.25L828.75 865.312L822.5 862.188L816.875 857.812L815.625 860.938L810 865.312L805 867.812L795 869.688H755.625V875.312L753.125 885.938L748.125 897.812L743.75 904.062L740.625 907.188L736.875 909.688H726.25L713.125 906.562L686.25 899.062L685 898.438V894.062L703.125 888.438L722.5 880.938L733.125 875.312L738.125 871.562L738.75 870.312L722.5 869.688L716.875 868.438L710.625 864.688L706.875 859.062L706.25 857.188V828.438L708.75 821.562L713.125 816.562L720 813.438L723.125 812.812H735.625L741.875 814.688L747.5 817.812L751.25 820.938L755.625 827.188L758.125 834.688V838.438H784.375V832.188L786.25 824.688L790 819.062L795.625 814.688L798.125 814.062V812.812L795 811.562L791.875 808.438L800.625 799.062L803.75 795.312L808.125 793.438ZM802.5 824.688L798.125 827.188L795.625 831.562L795 833.438V837.812L795.625 838.438H808.75L811.875 836.562L812.5 832.188L808.75 826.562L806.875 824.688H802.5ZM720 826.562L716.875 829.688V834.688L719.375 837.188L723.125 838.438H741.25L740 835.938L734.375 830.938L726.875 826.562H720ZM826.25 830.312L825.625 838.438L825 843.438L832.5 847.188L836.25 847.812L837.5 845.312V840.938L835 836.562L830.625 832.188L827.5 830.312H826.25Z" fill="#3151B6"/>
<path d="M345 926.562L346.25 927.188L355 950.938L354.375 953.438L345.625 958.438H343.125V1010.94L340 1016.56L335 1020.94L328.75 1023.44H286.25L285 1033.44L281.875 1042.81L276.875 1052.81L272.5 1058.44L267.5 1062.81L264.375 1064.06H254.375L241.875 1061.56L209.375 1053.44L207.5 1052.19V1049.06L211.875 1047.19L231.25 1041.56L248.75 1035.31L260.625 1029.69L267.5 1024.69L268.125 1023.44H245.625L239.375 1020.94L234.375 1017.19L231.875 1013.44L231.25 1011.56V982.812L233.75 976.562L238.125 971.562L244.375 968.438L250 967.188H264.375L272.5 969.688L279.375 974.062L285 980.312L287.5 985.312L288.75 990.312V992.812L321.25 992.188L325 991.562L325.625 984.062L313.125 954.062V949.062L316.875 944.688L330.625 935.938L345 926.562ZM249.375 980.312L245 981.562L243.125 983.438L242.5 987.188L243.75 990.312L247.5 992.188L250.625 992.812H270L268.75 990.312L261.25 984.688L253.75 980.938L249.375 980.312Z" fill="#3151B6"/>
<path d="M0 1104.06H23.75L24.375 1196.56L26.25 1205.31L30.625 1213.44L36.875 1219.69L44.375 1224.06L54.375 1227.19L65.625 1228.44L78.75 1227.81L87.5 1225.94L95 1222.81L101.875 1218.44L107.5 1212.19L110.625 1205.94L112.5 1199.06L113.125 1104.06H137.5V1192.81L136.25 1203.44L133.125 1213.44L128.75 1220.94L123.125 1227.19L116.875 1232.81L107.5 1238.44L95.625 1242.81L83.125 1245.31L76.25 1245.94H61.25L50.625 1244.69L40 1242.19L30.625 1238.44L21.875 1233.44L13.75 1226.56L7.5 1219.06L3.125 1210.31L0.625 1201.56L0 1197.19V1104.06Z" fill="#3151B6"/>
<path d="M544.375 1104.06H710V1120.94L709.375 1121.56H642.5V1245.94H611.875V1121.56H545L544.375 1120.94V1104.06Z" fill="#3151B6"/>
<path d="M1175 772.188H1175.62L1176.25 835.938L1178.12 837.812H1221.88L1235.62 836.562L1242.5 834.688L1245.62 831.562L1228.12 823.438L1220 820.938L1215 820.312L1208.12 821.562L1206.88 822.812V826.562L1207.5 828.438L1201.88 832.188H1200.62L1196.25 824.688V817.812L1199.38 812.188L1205 805.312L1211.25 800.938L1215 799.688H1221.88L1231.25 802.812L1245.62 808.438L1255.62 810.938L1267.5 812.188L1279.38 812.812L1277.5 819.062L1273.12 830.312L1268.75 831.562L1263.12 834.062L1258.75 837.188L1253.12 845.312L1246.88 857.812L1242.5 863.438L1236.25 867.188L1226.88 869.062L1218.75 869.688H1171.25L1162.5 867.812L1156.25 864.062L1151.25 859.062L1148.75 854.062L1148.12 851.562V790.312L1175 772.188Z" fill="#3151B6"/>
<path d="M219.375 796.562L220.625 797.812L228.125 835.312L230 837.188L231.875 837.812L258.75 838.438V831.562L262.5 824.062L267.5 817.812L271.875 812.812L278.75 807.812L282.5 806.562H291.25L297.5 809.062L303.75 814.688L307.5 819.062L312.5 827.812L316.25 837.812L312.5 844.688L301.875 862.812L298.75 867.188L279.375 863.438L270.625 862.188H266.875L263.75 865.938L258.75 868.438L253.125 869.688H231.875L224.375 867.812L218.125 864.062L214.375 859.688L212.5 857.188L208.75 862.812L203.75 866.562L197.5 869.062L193.75 869.688H182.5L176.25 868.438L170 865.312L166.875 862.188L164.375 859.062L161.875 852.812V841.562L165 832.188L167.5 827.188H175.625V832.812L176.875 836.562L181.875 837.812L206.875 838.438L201.25 810.938L201.875 807.812L216.25 798.438L219.375 796.562ZM276.25 826.562L273.75 828.438L273.125 830.312V834.688L276.875 837.812L279.375 838.438H297.5L296.25 835.938L290.625 830.938L283.125 826.562H276.25Z" fill="#3151B6"/>
<path d="M429.375 805.312L431.875 806.562L436.25 813.438L438.125 819.062L438.75 835.312V850.938L437.5 856.562L435 860.938L430.625 865.312L424.375 868.438L418.125 869.688H385V875.312L381.875 887.812L377.5 897.812L373.125 904.062L370 907.188L366.25 909.688H355.625L342.5 906.562L315 899.062L314.375 898.438V894.062L332.5 888.438L348.75 882.188L359.375 877.188L365.625 872.812L367.5 872.188L368.125 870.312L351.875 869.688L346.25 868.438L340 864.688L336.25 859.062L335.625 857.188V827.812L338.125 821.562L342.5 816.562L349.375 813.438L352.5 812.812H365L371.25 814.688L377.5 818.438L380.625 820.938L385 827.812L387.5 834.688V838.438H425L423.75 832.812L420 826.562L414.375 820.312L411.875 818.438L412.5 816.562L429.375 805.312ZM349.375 826.562L346.25 829.688V834.688L348.75 837.188L352.5 838.438H370.625L369.375 835.938L363.75 830.938L356.25 826.562H349.375Z" fill="#3151B6"/>
<path d="M134.375 805.312L136.875 806.562L141.25 813.438L143.125 819.062L143.75 825.312V852.188L141.875 858.438L136.25 864.688L131.25 867.812L127.5 869.062L123.125 869.688H98.125L90.625 867.812L85 864.688V870.938L83.75 878.438L80 885.938L75.625 890.938L66.875 896.562L58.75 899.062L50.625 900.312H38.125L26.875 898.438L18.75 895.312L11.875 890.938L6.25 885.312L2.5 879.062L0.625 873.438L0 869.688V860.312L2.5 850.312L7.5 840.312H21.25L19.375 845.938L18.125 850.312V856.562L20.625 861.562L26.25 865.312L31.875 867.188L35.625 867.812H51.25L60 865.938L66.25 862.812L68.75 859.688V854.688L64.375 849.062L57.5 840.938V839.688L80 824.688L81.25 825.312L85 832.812L88.125 835.938L92.5 837.812L130 838.438L128.75 832.812L125 826.562L119.375 820.312L116.875 818.438L117.5 816.562L134.375 805.312Z" fill="#3151B6"/>
<path d="M543.125 795.312H571.875V802.188L563.125 806.562L555 812.188L549.375 817.812L548.75 819.062L566.875 819.688L573.125 821.562L578.75 825.312L582.5 829.688L584.375 834.062V867.188L581.875 874.062L576.875 880.938L570 885.938L562.5 889.062L556.875 890.312H528.125L516.875 888.438L508.75 885.312L502.5 881.562L496.875 876.562L492.5 869.688L490.625 864.062L490 860.312V852.188L492.5 842.188L496.875 833.438L498.75 831.562H511.875L510.625 835.312L508.125 842.188V847.812L510.625 852.812L514.375 855.938L520.625 858.438L527.5 859.688H558.75L565 857.812L568.125 855.312L570 850.938H538.125L533.125 849.062L529.375 845.938L527.5 842.188V808.438L530.625 802.188L536.25 797.812L543.125 795.312Z" fill="#3151B6"/>
<path d="M759.375 967.188H773.75L781.875 969.688L787.5 973.438L792.5 979.062L796.25 986.562L798.75 995.312L799.375 999.688V1014.69L797.5 1026.56L793.75 1039.69L788.75 1049.69L784.375 1056.56L779.375 1061.56L774.375 1064.06H764.375L751.875 1061.56L719.375 1053.44L718.125 1052.81V1048.44L743.125 1040.94L758.75 1035.31L771.875 1029.06L777.5 1024.69L778.125 1023.44H755.625L748.125 1020.31L744.375 1017.19L741.25 1010.94V983.438L743.75 976.562L748.125 971.562L754.375 968.438L759.375 967.188ZM759.375 980.312L755 981.562L753.125 984.062V989.062L755.625 991.562L760.625 992.812H780L778.75 990.312L769.375 983.438L763.75 980.938L759.375 980.312Z" fill="#3151B6"/>
<path d="M874.375 960.938H882.5L889.375 963.438L895 967.188L900 972.188L905.625 980.938L910 990.938L909.375 994.688L900 1009.06L891.875 1021.56L882.5 1016.56L873.125 1012.81L864.375 1010.94H851.875L848.125 1012.81L846.25 1015.94L845.625 1019.06V1029.06L848.125 1055.94V1059.69L824.375 1069.06L821.25 1069.69V1008.44L823.75 1002.19L828.125 997.188L834.375 993.438L840.625 990.938L851.25 989.062H868.75L883.75 990.938L890 991.562L883.75 985.938L876.875 982.188L874.375 981.562H861.875L853.125 984.062L849.375 985.312L848.125 983.438L850.625 978.438L855 972.812L861.25 966.562L869.375 962.188L874.375 960.938Z" fill="#3151B6"/>
<path d="M619.375 823.438L621.875 824.062L628.125 829.688L633.75 838.438L636.875 846.562L638.125 851.562L638.75 857.188V863.438L636.875 874.062L633.125 885.312L628.125 895.312L624.375 900.938L618.75 906.562L612.5 909.688L607.5 910.312L596.875 908.438L578.125 902.812L566.875 899.062L566.25 898.438V894.062L578.75 890.938L591.875 885.938L605 879.688L611.875 875.312L618.125 870.312L620 867.812V863.438L616.875 858.438L611.25 852.188L604.375 846.562V844.688L612.5 832.812L619.375 823.438Z" fill="#3151B6"/>
<path d="M713.75 926.562H715L724.375 951.562V952.812L718.125 956.562H716.875L715 1010.94L705 1017.19L694.375 1023.44H693.125L686.875 955.312V948.438L689.375 943.438L694.375 939.062L708.125 930.312L713.75 926.562Z" fill="#3151B6"/>
<path d="M681.25 772.188H682.5L690.625 796.562L690 799.062L684.375 802.812L683.125 836.562L682.5 856.562L675.625 861.562L665.625 867.812L662.5 869.062L656.875 800.938V794.062L660 787.812L666.25 782.812L678.125 774.688L681.25 772.188Z" fill="#3151B6"/>
<path d="M35.625 1029.69H39.375L48.125 1035.94L50.625 1037.19L60.625 1029.69H64.375L75.625 1038.44L76.25 1040.94L69.375 1046.56L64.375 1050.31H60.625L50.625 1042.81L46.25 1045.31L40 1050.31H35.625L28.125 1044.06L24.375 1041.56V1038.44L34.375 1030.94L35.625 1029.69Z" fill="#3151B6"/>
<path d="M551.25 952.188L555.625 952.812L564.375 959.688L566.875 959.062L575.625 952.188L580 952.812L590.625 960.938L591.25 964.062L579.375 972.812H575L567.5 966.562L565 965.312L555 972.812H550.625L540.625 964.688L539.375 964.062L540 960.938L548.75 954.062L551.25 952.188Z" fill="#3151B6"/>
<path d="M525 894.688L528.75 895.312L535 900.938L538.125 902.188L546.25 895.312L550 894.688L558.75 902.188L561.25 904.062L560.625 907.188L553.75 912.812L550 915.938L546.25 915.312L539.375 909.062L536.875 908.438L528.75 915.312L525 915.938L518.75 910.312L514.375 906.562L515 903.438L522.5 896.562L525 894.688Z" fill="#3151B6"/>
<path d="M99.375 875.312H102.5L111.25 882.812L114.375 881.562L121.25 875.312L125.625 875.938L131.25 880.938L135.625 884.688L135 887.812L128.125 893.438L125 895.938H121.25L112.5 888.438L108.75 890.938L102.5 895.938H98.75L91.875 889.688L88.75 887.188V884.062L95.625 878.438L99.375 875.312Z" fill="#3151B6"/>
<path d="M920.625 774.688H925L931.25 780.312L933.125 781.562L935.625 780.938L943.125 774.688H946.875L955 781.562L957.5 783.438L956.875 786.562L948.125 794.062L946.25 795.312H943.125L935.625 788.438L933.125 787.812L924.375 795.312H921.25L911.875 787.188L910.625 785.938L911.25 782.812L920.625 774.688Z" fill="#3151B6"/>
<path d="M417.5 952.188H420.625L433.125 961.562V964.062L421.25 972.812L418.125 973.438L411.25 968.438L405.625 964.062L406.25 960.938L415.625 953.438L417.5 952.188Z" fill="#3151B6"/>
<path d="M130.625 1029.69L135 1030.31L146.25 1039.06V1041.56L134.375 1050.31H130L120 1042.19L118.75 1041.56L119.375 1038.44L128.125 1031.56L130.625 1029.69Z" fill="#3151B6"/>
<path d="M39.375 817.188H42.5L51.25 824.688L53.75 826.562L53.125 829.688L44.375 836.562L42.5 838.438H39.375L31.875 831.562L28.75 829.062L29.375 825.938L35.625 820.312L39.375 817.188Z" fill="#3151B6"/>
<path d="M405.625 875.312H409.375L418.125 882.812L420 884.062V887.188L411.875 894.062L409.375 895.938H405.625L398.125 889.062L395.625 887.188V884.062L405 875.938L405.625 875.312Z" fill="#3151B6"/>
<path d="M1208.12 875.312L1211.25 875.938L1217.5 880.938L1221.88 884.688L1221.25 887.812L1212.5 895.312L1210.62 896.562L1207.5 895.938L1198.75 888.438L1197.5 887.188L1198.12 884.062L1205.62 877.188L1208.12 875.312Z" fill="#3151B6"/>
</svg>
